<svg width="20" height="20" viewBox="0 0 20 20" fill="none" xmlns="http://www.w3.org/2000/svg">
<path fill-rule="evenodd" clip-rule="evenodd" d="M9.70676 3.29303C9.51923 3.10556 9.26492 3.00024 8.99976 3.00024C8.73459 3.00024 8.48028 3.10556 8.29276 3.29303L2.29276 9.29303C2.10528 9.48056 1.99997 9.73487 1.99997 10C1.99997 10.2652 2.10528 10.5195 2.29276 10.707L8.29276 16.707C8.48136 16.8892 8.73396 16.99 8.99616 16.9877C9.25835 16.9854 9.50917 16.8803 9.69457 16.6948C9.87998 16.5094 9.98515 16.2586 9.98743 15.9964C9.98971 15.7342 9.88891 15.4816 9.70676 15.293L5.41376 11H16.9998C17.265 11 17.5193 10.8947 17.7069 10.7071C17.8944 10.5196 17.9998 10.2652 17.9998 10C17.9998 9.73481 17.8944 9.48046 17.7069 9.29292C17.5193 9.10539 17.265 9.00003 16.9998 9.00003H5.41376L9.70676 4.70703C9.89423 4.5195 9.99954 4.26519 9.99954 4.00003C9.99954 3.73487 9.89423 3.48056 9.70676 3.29303Z" fill="black"/>
</svg>
