<svg id="Layer_1" data-name="Layer 1" xmlns="http://www.w3.org/2000/svg"
    viewBox="0 0 500 519.72">
    <defs>
        <style></style>
    </defs>
    <path class="cls-1"
        d="m238.68,339.88c-1.49.08-2.99.12-4.5.12-2.3,0-4.59-.09-6.84-.28,0,.09,0,.18,0,.28,0,21.87-17.73,39.59-39.6,39.59s-39.6-17.73-39.6-39.59c0-14.35,7.63-26.91,19.06-33.86-10.17-13.79-16.18-30.84-16.18-49.29v-.2c-.77.24-1.58.38-2.43.38-4.42,0-8.01-3.58-8.01-8.01s3.59-8.01,8.01-8.01c1.36,0,2.64.34,3.76.94,7.02-38.81,40.98-68.24,81.82-68.24,15.37,0,29.76,4.17,42.11,11.43,1.89-9.11,6.69-17.15,13.38-23.12-4.42-1.42-7.61-5.56-7.61-10.45,0-6.06,4.91-10.98,10.98-10.98s10.98,4.91,10.98,10.98c0,.71-.07,1.4-.19,2.07,4.45-1.58,9.24-2.43,14.23-2.43,19.86,0,36.56,13.58,41.3,31.96,7.82-4.75,17-7.48,26.82-7.48,28.58,0,51.74,23.16,51.74,51.74s-23.17,51.74-51.74,51.74c-26.65,0-48.6-20.15-51.44-46.04-5.13,2.18-10.77,3.39-16.69,3.39-1.1,0-2.18-.04-3.26-.12,1.66,6.54,2.54,13.4,2.54,20.46,0,18.85-6.27,36.24-16.85,50.18,10.49,7.12,17.39,19.15,17.39,32.78,0,21.87-17.73,39.59-39.6,39.59s-39.56-17.69-39.6-39.53"></path>
</svg>