<svg width="600" height="496" viewBox="0 0 700 580" fill="none" xmlns="http://www.w3.org/2000/svg">
<g clip-path="url(#clip0_16_76)">
<ellipse cx="180.5" cy="475" rx="46.5" ry="45" fill="#FFA602"/>
<ellipse cx="139" cy="365.5" rx="139" ry="138.5" fill="#6EB9AB"/>
<circle cx="549" cy="429" r="151" fill="#4E4F9C"/>
<circle cx="357.5" cy="270.5" r="270.5" fill="#E180A3"/>
<ellipse cx="358" cy="270.5" rx="241" ry="240.5" fill="#D9D9D9"/>
<g clip-path="url(#clip1_16_76)">
<mask id="mask0_16_76" style="mask-type:luminance" maskUnits="userSpaceOnUse" x="103" y="49" width="494" height="424">
<path d="M597 49H103V473H597V49Z" fill="white"/>
</mask>
<g mask="url(#mask0_16_76)">
<path d="M493.095 84.0138C492.54 83.6467 491.978 83.2986 491.423 82.9441C475.375 72.7639 458.173 64.4937 440.175 58.3041L436.001 115.407H409.544V49.9684C407.879 49.6266 406.2 49.3038 404.521 49V115.407H373.08C355.772 115.407 339.172 108.587 326.933 96.4483C314.694 84.3091 307.819 67.8448 307.819 50.6773C306.135 51.0381 304.463 51.4241 302.791 51.8355V115.407H277.182L273.207 60.9561C254.71 67.9919 237.15 77.2444 220.918 88.5076C220.637 88.6974 220.356 88.8937 220.082 89.0835C218.671 90.0646 217.28 91.0646 215.896 92.0773V309.926H291.368L290.034 291.603L282.695 190.998H430.482L423.143 291.603L421.808 309.926H496.445V86.2165C495.335 85.4696 494.218 84.7354 493.095 84.0138ZM302.791 174.384H281.484L277.545 120.395H302.791V174.384ZM404.521 174.384H368.735V173.314C368.735 172.8 368.633 172.291 368.435 171.816C368.236 171.341 367.944 170.909 367.578 170.546C367.212 170.183 366.775 169.895 366.296 169.698C365.818 169.502 365.304 169.402 364.786 169.403H349.227C348.71 169.402 348.196 169.503 347.718 169.7C347.24 169.896 346.804 170.184 346.438 170.548C346.073 170.911 345.781 171.342 345.583 171.817C345.386 172.292 345.284 172.8 345.284 173.314V174.384H307.819V120.395H404.521V174.384ZM409.544 174.384V120.395H435.637L431.701 174.384H409.544Z" fill="#F2F2F2"/>
<path d="M210.716 432.74L194.328 427.819C192.179 419.158 192.194 410.108 194.371 401.454C201.119 415.828 220.402 419.119 231.515 430.515C234.953 434.098 237.535 438.399 239.07 443.106C240.604 447.81 241.051 452.797 240.377 457.698L243.964 469.205C235.936 468.63 228.129 466.337 221.081 462.481C214.033 458.625 207.912 453.3 203.139 446.872C200.497 443.24 198.327 439.293 196.679 435.122C203.63 434.341 210.716 432.74 210.716 432.74Z" fill="#F2F2F2"/>
<path d="M554.625 316.078V409.594C557.727 405.195 559.434 402.521 562.308 398L562.027 364.144L561.963 355.129L561.79 329.75L561.732 321.661L561.644 308.097C561.65 307.053 561.605 306.009 561.516 304.983C561.516 304.945 561.51 304.907 561.51 304.868C561.165 300.729 560.188 297.173 558.823 294.786C558.438 294.083 557.96 293.432 557.4 292.856C556.988 292.43 556.496 292.088 555.952 291.849C555.581 291.689 555.181 291.605 554.777 291.602H164.877C162.108 291.616 159.67 295.596 158.591 301.476C158.364 302.738 158.204 304.01 158.113 305.286C158.049 306.217 158.011 307.16 158.011 308.097V404.758L158.216 405.057C160.726 408.715 162.335 411.06 165.03 414.611V316.078C165.037 312.686 166.179 309.932 167.596 309.926H552.065C553.476 309.932 554.625 312.686 554.625 316.078Z" fill="#F2F2F2"/>
<path d="M486.368 472.799L419.792 473C419.716 473 419.643 472.918 419.589 472.771C419.535 472.627 419.505 472.429 419.505 472.224C419.505 472.017 419.535 471.821 419.589 471.675C419.643 471.529 419.716 471.446 419.792 471.446L486.368 471.246C486.444 471.247 486.517 471.328 486.571 471.474C486.624 471.62 486.655 471.816 486.655 472.023C486.655 472.229 486.624 472.426 486.571 472.571C486.517 472.717 486.444 472.799 486.368 472.799Z" fill="#CACACA"/>
<path d="M377.823 246.64H346.659C346.218 246.641 345.796 246.815 345.484 247.124C345.172 247.434 344.998 247.855 344.999 248.291V297.122H379.489V248.291C379.489 248.075 379.445 247.859 379.362 247.66C379.278 247.459 379.156 247.277 379.001 247.123C378.846 246.97 378.664 246.848 378.462 246.765C378.26 246.682 378.042 246.64 377.823 246.64ZM362.347 274.385C361.371 274.381 360.438 273.995 359.749 273.311C359.061 272.628 358.67 271.701 358.667 270.735V265.103C358.667 264.134 359.054 263.206 359.745 262.523C360.435 261.838 361.371 261.453 362.347 261.453C363.323 261.453 364.259 261.838 364.949 262.523C365.639 263.206 366.027 264.134 366.027 265.103V270.735C366.022 271.701 365.633 272.628 364.943 273.311C364.254 273.995 363.321 274.381 362.347 274.385Z" fill="#2F2E41"/>
<path d="M429.43 170.434H296.211C295.066 170.436 293.969 170.888 293.16 171.691C292.35 172.493 291.894 173.581 291.893 174.717V263.88C291.894 265.017 292.349 266.105 293.159 266.907C293.969 267.712 295.066 268.163 296.211 268.163H429.43C430.576 268.163 431.673 267.712 432.482 266.907C433.292 266.105 433.747 265.017 433.748 263.88V174.717C433.747 173.581 433.291 172.493 432.482 171.691C431.672 170.888 430.574 170.436 429.43 170.434Z" fill="#3F3D56"/>
<path d="M428.316 173.527H297.322C296.708 173.528 296.121 173.77 295.688 174.201C295.255 174.631 295.013 175.214 295.012 175.822V262.776C295.013 263.383 295.256 263.965 295.69 264.394C296.123 264.824 296.71 265.065 297.322 265.067H428.316C428.928 265.065 429.515 264.824 429.948 264.394C430.38 263.965 430.625 263.383 430.625 262.776V175.822C430.625 175.214 430.381 174.631 429.95 174.201C429.517 173.77 428.93 173.528 428.316 173.527Z" fill="white"/>
<path d="M344.891 295.56V300.271C344.893 300.515 344.99 300.749 345.163 300.922C345.338 301.094 345.574 301.191 345.82 301.193H378.667C378.913 301.191 379.149 301.093 379.322 300.921C379.495 300.749 379.594 300.515 379.596 300.271V295.56H344.891Z" fill="#3F3D56"/>
<path d="M402.803 302.831H324.868C324.655 302.831 324.444 302.784 324.253 302.694C324.06 302.602 323.889 302.469 323.755 302.306C323.622 302.142 323.526 301.948 323.476 301.743C323.426 301.538 323.423 301.324 323.465 301.117L324.675 295.419C324.744 295.101 324.921 294.816 325.175 294.611C325.431 294.405 325.75 294.292 326.078 294.291H401.595C401.923 294.292 402.241 294.405 402.496 294.611C402.751 294.816 402.928 295.101 402.998 295.419L404.206 301.117C404.25 301.324 404.247 301.538 404.197 301.743C404.147 301.948 404.051 302.142 403.917 302.306C403.782 302.469 403.613 302.602 403.42 302.694C403.227 302.784 403.017 302.831 402.803 302.831Z" fill="#2F2E41"/>
<path d="M328.72 295.317H326.943C326.771 295.317 326.631 295.456 326.631 295.626V296.436C326.631 296.607 326.771 296.746 326.943 296.746H328.72C328.892 296.746 329.031 296.607 329.031 296.436V295.626C329.031 295.456 328.892 295.317 328.72 295.317Z" fill="#3F3D56"/>
<path d="M333.52 295.317H331.743C331.571 295.317 331.432 295.456 331.432 295.626V296.436C331.432 296.607 331.571 296.746 331.743 296.746H333.52C333.693 296.746 333.832 296.607 333.832 296.436V295.626C333.832 295.456 333.693 295.317 333.52 295.317Z" fill="#3F3D56"/>
<path d="M338.322 295.317H336.545C336.372 295.317 336.233 295.456 336.233 295.626V296.436C336.233 296.607 336.372 296.746 336.545 296.746H338.322C338.494 296.746 338.633 296.607 338.633 296.436V295.626C338.633 295.456 338.494 295.317 338.322 295.317Z" fill="#3F3D56"/>
<path d="M343.122 295.317H341.345C341.173 295.317 341.033 295.456 341.033 295.626V296.436C341.033 296.607 341.173 296.746 341.345 296.746H343.122C343.293 296.746 343.433 296.607 343.433 296.436V295.626C343.433 295.456 343.293 295.317 343.122 295.317Z" fill="#3F3D56"/>
<path d="M347.922 295.317H346.145C345.973 295.317 345.833 295.456 345.833 295.626V296.436C345.833 296.607 345.973 296.746 346.145 296.746H347.922C348.095 296.746 348.234 296.607 348.234 296.436V295.626C348.234 295.456 348.095 295.317 347.922 295.317Z" fill="#3F3D56"/>
<path d="M352.724 295.317H350.945C350.774 295.317 350.635 295.456 350.635 295.626V296.436C350.635 296.607 350.774 296.746 350.945 296.746H352.724C352.896 296.746 353.035 296.607 353.035 296.436V295.626C353.035 295.456 352.896 295.317 352.724 295.317Z" fill="#3F3D56"/>
<path d="M357.524 295.317H355.747C355.575 295.317 355.436 295.456 355.436 295.626V296.436C355.436 296.607 355.575 296.746 355.747 296.746H357.524C357.696 296.746 357.836 296.607 357.836 296.436V295.626C357.836 295.456 357.696 295.317 357.524 295.317Z" fill="#3F3D56"/>
<path d="M362.324 295.317H360.547C360.375 295.317 360.235 295.456 360.235 295.626V296.436C360.235 296.607 360.375 296.746 360.547 296.746H362.324C362.497 296.746 362.635 296.607 362.635 296.436V295.626C362.635 295.456 362.497 295.317 362.324 295.317Z" fill="#3F3D56"/>
<path d="M367.126 295.317H365.347C365.175 295.317 365.036 295.456 365.036 295.626V296.436C365.036 296.607 365.175 296.746 365.347 296.746H367.126C367.297 296.746 367.437 296.607 367.437 296.436V295.626C367.437 295.456 367.297 295.317 367.126 295.317Z" fill="#3F3D56"/>
<path d="M371.926 295.317H370.149C369.977 295.317 369.837 295.456 369.837 295.626V296.436C369.837 296.607 369.977 296.746 370.149 296.746H371.926C372.098 296.746 372.237 296.607 372.237 296.436V295.626C372.237 295.456 372.098 295.317 371.926 295.317Z" fill="#3F3D56"/>
<path d="M376.726 295.317H374.949C374.778 295.317 374.638 295.456 374.638 295.626V296.436C374.638 296.607 374.778 296.746 374.949 296.746H376.726C376.898 296.746 377.038 296.607 377.038 296.436V295.626C377.038 295.456 376.898 295.317 376.726 295.317Z" fill="#3F3D56"/>
<path d="M381.527 295.317H379.749C379.577 295.317 379.438 295.456 379.438 295.626V296.436C379.438 296.607 379.577 296.746 379.749 296.746H381.527C381.699 296.746 381.839 296.607 381.839 296.436V295.626C381.839 295.456 381.699 295.317 381.527 295.317Z" fill="#3F3D56"/>
<path d="M386.328 295.317H384.551C384.378 295.317 384.239 295.456 384.239 295.626V296.436C384.239 296.607 384.378 296.746 384.551 296.746H386.328C386.499 296.746 386.639 296.607 386.639 296.436V295.626C386.639 295.456 386.499 295.317 386.328 295.317Z" fill="#3F3D56"/>
<path d="M391.128 295.317H389.351C389.179 295.317 389.04 295.456 389.04 295.626V296.436C389.04 296.607 389.179 296.746 389.351 296.746H391.128C391.3 296.746 391.44 296.607 391.44 296.436V295.626C391.44 295.456 391.3 295.317 391.128 295.317Z" fill="#3F3D56"/>
<path d="M395.928 295.317H394.151C393.98 295.317 393.84 295.456 393.84 295.626V296.436C393.84 296.607 393.98 296.746 394.151 296.746H395.928C396.102 296.746 396.24 296.607 396.24 296.436V295.626C396.24 295.456 396.102 295.317 395.928 295.317Z" fill="#3F3D56"/>
<path d="M400.73 295.317H398.953C398.779 295.317 398.641 295.456 398.641 295.626V296.436C398.641 296.607 398.779 296.746 398.953 296.746H400.73C400.901 296.746 401.041 296.607 401.041 296.436V295.626C401.041 295.456 400.901 295.317 400.73 295.317Z" fill="#3F3D56"/>
<path d="M328.664 297.698H326.887C326.714 297.698 326.575 297.835 326.575 298.007V298.817C326.575 298.988 326.714 299.125 326.887 299.125H328.664C328.835 299.125 328.975 298.988 328.975 298.817V298.007C328.975 297.835 328.835 297.698 328.664 297.698Z" fill="#3F3D56"/>
<path d="M333.463 297.698H331.687C331.515 297.698 331.375 297.835 331.375 298.007V298.817C331.375 298.988 331.515 299.125 331.687 299.125H333.463C333.635 299.125 333.775 298.988 333.775 298.817V298.007C333.775 297.835 333.635 297.698 333.463 297.698Z" fill="#3F3D56"/>
<path d="M338.264 297.698H336.487C336.315 297.698 336.175 297.835 336.175 298.007V298.817C336.175 298.988 336.315 299.125 336.487 299.125H338.264C338.437 299.125 338.575 298.988 338.575 298.817V298.007C338.575 297.835 338.437 297.698 338.264 297.698Z" fill="#3F3D56"/>
<path d="M343.066 297.698H341.289C341.115 297.698 340.977 297.835 340.977 298.007V298.817C340.977 298.988 341.115 299.125 341.289 299.125H343.066C343.237 299.125 343.377 298.988 343.377 298.817V298.007C343.377 297.835 343.237 297.698 343.066 297.698Z" fill="#3F3D56"/>
<path d="M347.866 297.698H346.089C345.917 297.698 345.777 297.835 345.777 298.007V298.817C345.777 298.988 345.917 299.125 346.089 299.125H347.866C348.038 299.125 348.177 298.988 348.177 298.817V298.007C348.177 297.835 348.038 297.698 347.866 297.698Z" fill="#3F3D56"/>
<path d="M352.666 297.698H350.889C350.717 297.698 350.578 297.835 350.578 298.007V298.817C350.578 298.988 350.717 299.125 350.889 299.125H352.666C352.839 299.125 352.978 298.988 352.978 298.817V298.007C352.978 297.835 352.839 297.698 352.666 297.698Z" fill="#3F3D56"/>
<path d="M357.467 297.698H355.689C355.517 297.698 355.379 297.835 355.379 298.007V298.817C355.379 298.988 355.517 299.125 355.689 299.125H357.467C357.639 299.125 357.779 298.988 357.779 298.817V298.007C357.779 297.835 357.639 297.698 357.467 297.698Z" fill="#3F3D56"/>
<path d="M362.268 297.698H360.491C360.319 297.698 360.179 297.835 360.179 298.007V298.817C360.179 298.988 360.319 299.125 360.491 299.125H362.268C362.439 299.125 362.579 298.988 362.579 298.817V298.007C362.579 297.835 362.439 297.698 362.268 297.698Z" fill="#3F3D56"/>
<path d="M367.068 297.698H365.291C365.119 297.698 364.979 297.835 364.979 298.007V298.817C364.979 298.988 365.119 299.125 365.291 299.125H367.068C367.24 299.125 367.38 298.988 367.38 298.817V298.007C367.38 297.835 367.24 297.698 367.068 297.698Z" fill="#3F3D56"/>
<path d="M371.869 297.698H370.091C369.919 297.698 369.779 297.835 369.779 298.007V298.817C369.779 298.988 369.919 299.125 370.091 299.125H371.869C372.041 299.125 372.181 298.988 372.181 298.817V298.007C372.181 297.835 372.041 297.698 371.869 297.698Z" fill="#3F3D56"/>
<path d="M376.67 297.698H374.893C374.719 297.698 374.581 297.835 374.581 298.007V298.817C374.581 298.988 374.719 299.125 374.893 299.125H376.67C376.841 299.125 376.981 298.988 376.981 298.817V298.007C376.981 297.835 376.841 297.698 376.67 297.698Z" fill="#3F3D56"/>
<path d="M381.47 297.698H379.693C379.521 297.698 379.381 297.835 379.381 298.007V298.817C379.381 298.988 379.521 299.125 379.693 299.125H381.47C381.642 299.125 381.781 298.988 381.781 298.817V298.007C381.781 297.835 381.642 297.698 381.47 297.698Z" fill="#3F3D56"/>
<path d="M386.272 297.698H384.493C384.321 297.698 384.182 297.835 384.182 298.007V298.817C384.182 298.988 384.321 299.125 384.493 299.125H386.272C386.443 299.125 386.582 298.988 386.582 298.817V298.007C386.582 297.835 386.443 297.698 386.272 297.698Z" fill="#3F3D56"/>
<path d="M391.072 297.698H389.295C389.122 297.698 388.983 297.835 388.983 298.007V298.817C388.983 298.988 389.122 299.125 389.295 299.125H391.072C391.244 299.125 391.383 298.988 391.383 298.817V298.007C391.383 297.835 391.244 297.698 391.072 297.698Z" fill="#3F3D56"/>
<path d="M395.872 297.698H394.095C393.923 297.698 393.783 297.835 393.783 298.007V298.817C393.783 298.988 393.923 299.125 394.095 299.125H395.872C396.043 299.125 396.183 298.988 396.183 298.817V298.007C396.183 297.835 396.043 297.698 395.872 297.698Z" fill="#3F3D56"/>
<path d="M400.672 297.698H398.895C398.723 297.698 398.583 297.835 398.583 298.007V298.817C398.583 298.988 398.723 299.125 398.895 299.125H400.672C400.845 299.125 400.984 298.988 400.984 298.817V298.007C400.984 297.835 400.845 297.698 400.672 297.698Z" fill="#3F3D56"/>
<path d="M368.509 300.554H349.928C349.756 300.554 349.618 300.693 349.618 300.864V301.674C349.618 301.844 349.756 301.983 349.928 301.983H368.509C368.68 301.983 368.82 301.844 368.82 301.674V300.864C368.82 300.693 368.68 300.554 368.509 300.554Z" fill="#3F3D56"/>
<path d="M421.734 185.508H299.163C299.035 185.505 298.914 185.453 298.824 185.363C298.734 185.272 298.686 185.151 298.686 185.024C298.686 184.898 298.734 184.776 298.824 184.686C298.914 184.596 299.035 184.544 299.163 184.541H421.734C421.862 184.544 421.982 184.596 422.072 184.686C422.161 184.776 422.211 184.898 422.211 185.024C422.211 185.151 422.161 185.272 422.072 185.363C421.982 185.453 421.862 185.505 421.734 185.508Z" fill="#CACACA"/>
<path d="M307.506 182.072C309.084 182.072 310.363 180.776 310.363 179.176C310.363 177.576 309.084 176.28 307.506 176.28C305.929 176.28 304.65 177.576 304.65 179.176C304.65 180.776 305.929 182.072 307.506 182.072Z" fill="#3F3D56"/>
<path d="M317.375 182.072C318.952 182.072 320.231 180.776 320.231 179.176C320.231 177.576 318.952 176.28 317.375 176.28C315.797 176.28 314.519 177.576 314.519 179.176C314.519 180.776 315.797 182.072 317.375 182.072Z" fill="#3F3D56"/>
<path d="M327.242 182.072C328.82 182.072 330.1 180.776 330.1 179.176C330.1 177.576 328.82 176.28 327.242 176.28C325.665 176.28 324.386 177.576 324.386 179.176C324.386 180.776 325.665 182.072 327.242 182.072Z" fill="#3F3D56"/>
<path d="M415.793 176.998H408.783C408.644 177 408.512 177.057 408.415 177.155C408.317 177.254 408.263 177.386 408.263 177.524C408.263 177.662 408.317 177.794 408.415 177.892C408.512 177.991 408.644 178.048 408.783 178.05H415.793C415.931 178.048 416.063 177.991 416.161 177.892C416.258 177.794 416.313 177.662 416.313 177.524C416.313 177.386 416.258 177.254 416.161 177.155C416.063 177.057 415.931 177 415.793 176.998Z" fill="#3F3D56"/>
<path d="M415.793 178.974H408.783C408.644 178.976 408.512 179.033 408.415 179.131C408.317 179.23 408.263 179.362 408.263 179.5C408.263 179.638 408.317 179.77 408.415 179.869C408.512 179.967 408.644 180.024 408.783 180.027H415.793C415.931 180.024 416.063 179.967 416.161 179.869C416.258 179.77 416.313 179.638 416.313 179.5C416.313 179.362 416.258 179.23 416.161 179.131C416.063 179.033 415.931 178.976 415.793 178.974Z" fill="#3F3D56"/>
<path d="M415.793 180.947H408.783C408.644 180.95 408.512 181.007 408.415 181.105C408.317 181.203 408.263 181.336 408.263 181.474C408.263 181.611 408.317 181.744 408.415 181.842C408.512 181.941 408.644 181.997 408.783 182H415.793C415.931 181.997 416.063 181.941 416.161 181.842C416.258 181.744 416.313 181.611 416.313 181.474C416.313 181.336 416.258 181.203 416.161 181.105C416.063 181.007 415.931 180.95 415.793 180.947Z" fill="#3F3D56"/>
<path d="M370.24 213.752H354.923C353.774 213.752 352.841 214.677 352.841 215.818C352.841 216.958 353.774 217.883 354.923 217.883H370.24C371.391 217.883 372.323 216.958 372.323 215.818C372.323 214.677 371.391 213.752 370.24 213.752Z" fill="#005E5D"/>
<path d="M380.134 222.016H345.029C343.879 222.016 342.947 222.941 342.947 224.082C342.947 225.223 343.879 226.147 345.029 226.147H380.134C381.284 226.147 382.216 225.223 382.216 224.082C382.216 222.941 381.284 222.016 380.134 222.016Z" fill="#E6E6E6"/>
<path d="M380.134 230.28H345.029C343.879 230.28 342.947 231.205 342.947 232.346C342.947 233.487 343.879 234.412 345.029 234.412H380.134C381.284 234.412 382.216 233.487 382.216 232.346C382.216 231.205 381.284 230.28 380.134 230.28Z" fill="#E6E6E6"/>
<path d="M266.249 309.046H227.962C226.607 309.046 225.309 309.58 224.352 310.53C223.394 311.479 222.856 312.767 222.856 314.11C222.856 315.453 223.394 316.74 224.352 317.691C225.309 318.64 226.607 319.174 227.962 319.174H242V358.414H252.21V319.174H266.249C267.603 319.174 268.901 318.64 269.859 317.691C270.817 316.74 271.355 315.453 271.355 314.11C271.355 312.767 270.817 311.479 269.859 310.53C268.901 309.58 267.603 309.046 266.249 309.046Z" fill="#3F3D56"/>
<path d="M291.52 380.149H189.11C179.182 380.112 169.598 376.535 162.11 370.069C154.621 363.603 149.727 354.683 148.323 344.934L144.698 331.708C137.195 304.302 125.766 278.106 110.761 253.919C103.903 242.872 100.373 232.179 108.39 221.883C108.459 221.796 108.526 221.71 108.592 221.624C115.022 213.322 147.029 211.525 157.464 211.176C157.876 211.161 158.29 211.155 158.705 211.155H222.403C222.818 211.155 223.233 211.163 223.643 211.176C229.269 211.339 234.744 213.008 239.489 216.008C244.235 219.009 248.073 223.226 250.596 228.215C253.289 233.309 254.542 239.029 254.221 244.772C253.9 250.513 252.017 256.063 248.773 260.83C226.399 294.167 219.548 315.07 226.562 328.608C233.345 341.7 254.142 348.395 292.008 349.675C302.183 350.019 306.854 357.877 306.886 365.034C306.918 372.005 302.428 379.702 292.495 380.127C292.172 380.141 291.847 380.149 291.52 380.149Z" fill="#4E4F9C"/>
<path d="M206.507 470.341H244.796C246.15 470.341 247.448 469.807 248.406 468.858C249.363 467.908 249.901 466.62 249.901 465.277C249.901 463.935 249.363 462.646 248.406 461.697C247.448 460.748 246.15 460.214 244.796 460.214H230.757V374.768H220.546V460.214H206.507C205.153 460.214 203.855 460.748 202.898 461.697C201.94 462.646 201.402 463.935 201.402 465.277C201.402 466.62 201.94 467.908 202.898 468.858C203.855 469.807 205.153 470.341 206.507 470.341Z" fill="#3F3D56"/>
<path d="M203.45 214.327L204.252 219.164C204.632 221.509 206.007 238.08 204.988 240.056C204.898 236.366 197.969 230.563 193.479 231.887L186.432 233.44L182.059 234.406L178.499 235.18L168.155 237.422C168.138 237.303 168.124 237.176 168.106 237.057C168.082 236.906 168.057 236.757 168.027 236.607C167.834 235.646 167.483 234.721 166.987 233.873C166.935 235.009 166.596 236.115 166.003 237.09C165.986 237.114 165.972 237.141 165.961 237.168C165.777 237.464 165.574 237.746 165.354 238.016C165.343 238.022 165.334 238.032 165.326 238.041C165.326 238.041 163.201 204.439 163.424 204.128C163.587 203.908 163.751 203.694 163.922 203.484C164.093 203.268 164.259 203.061 164.437 202.85C164.459 202.83 164.479 202.806 164.494 202.781C164.992 202.195 165.52 201.635 166.076 201.103C166.239 200.947 166.408 200.789 166.578 200.632C169.166 198.258 172.257 196.489 175.626 195.456C176.006 195.34 176.401 195.234 176.802 195.127C177.198 195.027 177.602 194.932 178.008 194.85L178.146 194.822C178.34 194.783 178.541 194.748 178.736 194.715C178.981 194.672 179.227 194.635 179.469 194.605C182.603 194.157 185.795 194.335 188.859 195.129C188.865 195.127 188.866 195.133 188.872 195.132C191.43 195.795 193.86 196.869 196.068 198.311C199.886 200.812 201.372 204.89 202.428 209.47C202.798 211.042 203.109 212.678 203.45 214.327Z" fill="#2F2E41"/>
<path d="M241.161 435.893L247.758 439.447L265.218 415.502L255.483 410.257L241.161 435.893Z" fill="#FFB6B6"/>
<path d="M244.336 427.36L256.311 431.08L254.405 436.055L262.616 447.875C263.02 448.459 263.228 449.156 263.206 449.864C263.184 450.573 262.934 451.255 262.493 451.814C262.052 452.372 261.442 452.775 260.754 452.965C260.065 453.155 259.333 453.122 258.665 452.87L244.726 447.617L244.207 441.79L241.385 446.357L236.128 444.378L244.336 427.36Z" fill="#2F2E41"/>
<path d="M278.523 328.793C277.469 329.048 276.374 329.071 275.311 328.86C274.249 328.647 273.245 328.208 272.373 327.571C271.5 326.933 270.78 326.113 270.262 325.17C269.743 324.226 269.439 323.182 269.372 322.109L213.113 302.034L223.438 293.123L276.836 314.211C278.66 314.217 280.418 314.889 281.777 316.094C283.136 317.301 284.001 318.961 284.209 320.758C284.417 322.557 283.954 324.368 282.905 325.848C281.856 327.33 280.298 328.377 278.523 328.793Z" fill="#FFB6B6"/>
<path d="M197.397 252.304C197.397 252.304 187.921 252.511 187.079 263.241C186.236 273.969 206.911 300.509 210.114 304.885C213.318 309.261 248.898 314.647 248.898 314.647L260.994 305.938C248.284 297.77 236.686 291.508 228.901 291.789L197.397 252.304Z" fill="#FFA602"/>
<path d="M185.775 299.646L188.084 309.485C188.084 309.485 188.107 318.558 189.727 320.23C191.336 321.896 226.71 318.552 226.71 318.552C226.71 318.552 222.959 303.933 223.009 292.869L185.775 299.646Z" fill="#FFB6B6"/>
<path d="M260.506 425.506L247.743 418.544C247.501 402.071 257.489 379.78 269.338 356.432C242.841 360.952 217.843 362.401 196.221 356.933C192.671 356.003 189.633 353.725 187.762 350.592C185.892 347.458 185.34 343.721 186.226 340.187C186.31 339.84 186.407 339.496 186.518 339.156C189.105 331.325 183.303 326.417 188.64 317.804C202.676 313.049 216.011 311.706 228.203 315.906L235.844 332.661L273.712 327.799C275.542 327.583 277.397 327.726 279.171 328.224C280.943 328.722 282.6 329.563 284.044 330.697C285.488 331.832 286.69 333.24 287.584 334.838C288.478 336.437 289.043 338.195 289.247 340.01C289.298 340.419 289.332 340.828 289.347 341.239C281.689 376.844 273.104 408.879 260.506 425.506Z" fill="#2F2E41"/>
<path d="M187.529 231.65C196.094 229.914 201.616 221.618 199.864 213.123C198.111 204.628 189.748 199.15 181.183 200.889C172.618 202.627 167.096 210.923 168.848 219.418C170.601 227.911 178.965 233.389 187.529 231.65Z" fill="#FFB6B6"/>
<path d="M180.635 237.351L195.224 236.496C195.839 236.459 196.45 236.615 196.972 236.941C197.494 237.265 197.901 237.743 198.136 238.308L202.259 248.221L219.393 262.267C219.393 262.267 226.177 270.829 226.192 281.888C226.207 292.945 228.598 318.54 228.598 318.54C228.598 318.54 218.698 304.717 212.587 308.394C211.548 309.019 211.182 310.299 210.093 310.944C209.55 311.267 208.295 310.954 207.746 311.276C199.326 316.235 190.544 321.08 189.723 320.23C188.112 318.561 186.158 310.041 186.158 310.041L172.804 261.377C172.08 258.817 171.936 256.129 172.383 253.507C172.83 250.884 173.856 248.393 175.388 246.21C176.321 244.908 177.298 243.939 178.207 243.779C180.246 243.347 179.161 238.813 180.635 237.351Z" fill="#FFA602"/>
<path d="M304.733 456.506L310.892 452.26L296.941 426.156L287.853 432.423L304.733 456.506Z" fill="#FFB6B6"/>
<path d="M305.664 438.991L296.012 447.546C280.667 430.588 269.065 406.802 259.234 379.789C233.476 372.307 214.05 360.24 197.092 345.912C191.339 341.083 187.026 334.88 191.933 328.998C192.162 328.724 192.402 328.458 192.651 328.202C198.444 322.296 213.136 323.422 221.74 318.011L240.962 338.39L239.752 343.852L275.857 355.982C277.594 356.587 279.193 357.526 280.563 358.745C281.932 359.965 283.045 361.443 283.835 363.09C284.627 364.74 285.082 366.528 285.173 368.35C285.264 370.175 284.989 371.997 284.367 373.716C284.232 374.104 284.08 374.486 283.911 374.861L305.664 438.991Z" fill="#2F2E41"/>
<path d="M301.143 454.785L311 447.086L314.064 451.456L328.534 451.412C329.25 451.411 329.947 451.634 330.524 452.054C331.1 452.471 331.527 453.061 331.743 453.737C331.958 454.413 331.948 455.141 331.717 455.811C331.486 456.482 331.046 457.063 330.459 457.467L318.215 465.908L313.075 463.041L315.28 467.932L310.664 471.115L301.143 454.785Z" fill="#2F2E41"/>
<path d="M202.178 359.993C201.18 359.573 200.288 358.941 199.563 358.143C198.839 357.343 198.299 356.397 197.984 355.368C197.668 354.34 197.583 353.255 197.735 352.192C197.888 351.128 198.274 350.109 198.866 349.21L165.839 299.777L179.487 298.748L209.608 347.298C211.067 348.385 212.073 349.965 212.436 351.737C212.799 353.51 212.494 355.354 211.578 356.919C210.662 358.484 209.199 359.661 207.467 360.228C205.734 360.794 203.852 360.711 202.178 359.993Z" fill="#FFB6B6"/>
<path d="M183.189 250.583C183.189 250.583 175.465 245.134 168.327 253.24C161.189 261.345 161.785 294.878 161.718 300.286C161.697 301.98 164.163 305.633 167.559 309.853C169.084 311.749 170.797 313.757 172.556 315.755C173.575 316.911 172.697 319.316 173.72 320.438C174.736 321.556 177.653 321.392 178.62 322.429C183.211 327.349 186.941 331.096 186.941 331.096L201.886 331.278C202.055 320.259 194.446 310.422 184.672 300.916L183.189 250.583Z" fill="#FFA602"/>
<path d="M204.14 208.643C203.554 208.931 202.986 209.207 202.428 209.47C200.188 210.561 197.873 211.495 195.501 212.264C195.106 211.199 194.504 210.221 193.728 209.387C193.927 210.539 193.826 211.722 193.435 212.825C189.844 213.708 186.074 213.563 182.562 212.409C184.859 216.626 186.556 225.514 186.432 233.44C186.378 237.632 185.807 241.553 184.558 244.37L182.953 239.528C182.804 237.799 182.505 236.085 182.059 234.406C180.983 229.695 179.978 232.844 178.499 235.18L168.156 237.42C168.138 237.303 168.125 237.176 168.107 237.057C168.082 236.906 168.058 236.757 168.027 236.607C167.834 235.646 167.483 234.721 166.987 233.873C166.935 235.009 166.596 236.115 166.003 237.09C165.987 237.114 165.973 237.141 165.961 237.169C165.777 237.464 165.574 237.746 165.354 238.017C165.344 238.023 165.334 238.032 165.326 238.041C158.648 238.926 153.967 204.769 163.425 204.134C163.7 204.116 163.752 203.7 163.923 203.484C164.093 203.268 164.259 203.061 164.437 202.85C164.459 202.831 164.479 202.806 164.494 202.781C164.999 202.2 165.523 201.642 166.076 201.103C166.239 200.947 166.409 200.789 166.578 200.632C169.174 198.269 172.264 196.504 175.627 195.462C176.007 195.347 176.401 195.234 176.802 195.127C177.198 195.027 177.602 194.932 178.008 194.85L178.146 194.822C178.34 194.783 178.541 194.748 178.736 194.715C178.981 194.672 179.228 194.635 179.469 194.605C180.375 195.058 181.151 195.732 181.723 196.564L188.331 195.223C188.506 195.187 188.683 195.158 188.86 195.135L188.873 195.132C197.123 193.761 202.427 200.341 204.14 208.643Z" fill="#2F2E41"/>
<path d="M168.124 202.604C166.709 203.618 165.22 204.661 163.494 204.913C161.767 205.163 159.746 204.335 159.268 202.671C158.684 200.635 160.537 198.782 162.202 197.459L167.484 193.265C168.451 192.414 169.543 191.714 170.722 191.188C171.314 190.93 171.957 190.807 172.604 190.828C173.25 190.85 173.884 191.015 174.457 191.312C175.025 191.692 175.485 192.21 175.794 192.817C176.102 193.423 176.249 194.098 176.221 194.777C176.145 196.137 175.693 197.45 174.913 198.572C173.932 200.087 172.653 201.391 171.151 202.404C169.65 203.414 167.958 204.116 166.176 204.462" fill="#2F2E41"/>
<path d="M208.179 311.578H169.891C168.537 311.578 167.238 312.111 166.281 313.061C165.324 314.011 164.786 315.299 164.786 316.642C164.786 317.985 165.324 319.272 166.281 320.221C167.238 321.172 168.537 321.704 169.891 321.704H183.93V360.946H194.14V321.704H208.179C209.533 321.704 210.831 321.172 211.789 320.221C212.746 319.272 213.284 317.985 213.284 316.642C213.284 315.299 212.746 314.011 211.789 313.061C210.831 312.111 209.533 311.578 208.179 311.578Z" fill="#3F3D56"/>
<path d="M384.133 472.216L228.1 472.415C227.988 472.415 227.88 472.333 227.801 472.188C227.722 472.042 227.678 471.844 227.678 471.638C227.678 471.433 227.722 471.235 227.801 471.089C227.88 470.944 227.988 470.861 228.1 470.861L384.133 470.661C384.246 470.661 384.353 470.743 384.432 470.888C384.511 471.034 384.556 471.232 384.556 471.437C384.556 471.643 384.511 471.841 384.432 471.987C384.353 472.132 384.246 472.214 384.133 472.216Z" fill="#CACACA"/>
<path d="M483.349 388.109L489.581 394.847L518.746 374.208L509.547 364.264L483.349 388.109Z" fill="#A0616A"/>
<path d="M496.249 397.644V397.638L495.617 390.91L495.329 390.777L493.651 389.985L485.732 386.27L485.566 386.094L483.977 384.372L475.177 392.384L487.097 405.27L495.272 414.106L495.547 413.853C496.667 412.836 497.574 411.609 498.216 410.242C498.857 408.876 499.221 407.399 499.286 405.893C499.351 404.387 499.117 402.885 498.596 401.469C498.075 400.054 497.277 398.753 496.249 397.644Z" fill="#2F2E41"/>
<path d="M451.057 455.317L459.877 457.974L474.41 425.494L461.391 421.571L451.057 455.317Z" fill="#A0616A"/>
<path d="M473.895 462.589C473.183 461.258 472.214 460.079 471.039 459.123C469.864 458.166 468.509 457.452 467.055 457.019L463.052 451.545L462.741 451.571L452.166 452.532L451.931 452.462L449.684 451.785L446.212 463.121L474.655 471.69L474.763 471.33C475.206 469.889 475.358 468.374 475.209 466.874C475.061 465.374 474.614 463.918 473.895 462.589Z" fill="#2F2E41"/>
<path d="M523.791 285.253C523.791 285.253 580.107 339.184 544.504 355.876H533.501C533.501 355.876 530.194 344.225 522.624 334.397C521.584 333.048 517.69 333.323 516.608 332.007C510.004 323.977 502.844 317.081 497.898 317.354L499.082 354.618L500.996 367.908C502.002 374.78 473.631 434.774 473.631 434.774L455.8 427.822C455.8 427.822 474.378 378.409 474.597 371.285L459.708 292.957L523.791 285.253Z" fill="#2F2E41"/>
<path d="M528.487 287.913C528.2 288.319 527.826 288.657 527.389 288.9C526.672 289.302 525.895 289.589 525.087 289.748C512.407 292.602 470.985 298.52 460.233 295.697C458.912 295.356 458.05 294.875 457.769 294.243C456.869 292.242 456.985 283.792 457.513 273.589C457.609 271.678 459.734 269.608 459.862 267.609C459.952 266.108 458.044 264.697 458.146 263.171C458.848 252.855 459.754 242.341 460.36 235.696C460.743 231.424 461.005 228.752 461.005 228.752L454.464 187.846L454.77 187.346L455.115 187.175L476.205 176.821L477.354 173.909C477.687 173.071 478.265 172.351 479.014 171.842C479.765 171.333 480.651 171.059 481.558 171.055L495.451 170.998C496.172 170.994 496.883 171.16 497.526 171.484C498.169 171.808 498.724 172.279 499.146 172.858L502.911 178.029L527.798 193.853L527.703 194.144L516.024 229.392L515.967 232.139V232.145L515.533 254.234L516.739 257.228L515.38 262.139C515.38 262.139 516.006 267.881 519.356 272.146C522.393 276.02 526.26 280.057 528.008 283.336V283.342C528.979 285.153 529.305 286.722 528.487 287.913Z" fill="#E180A3"/>
<path d="M547.209 352.673L544.199 356.445C544.199 356.445 516.515 375.657 515.564 377.452L511.189 381.558L500.603 370.333L506.108 363.49C510.513 358.013 516.205 353.69 522.687 350.902L531.123 343.476L547.209 352.673Z" fill="#2F2E41"/>
<path d="M529.617 298.756L524.577 250.355L523.246 230.434L537.357 227.904C537.357 227.904 536.798 242.148 538.646 250.184C540.47 258.113 538.888 297.692 538.775 298.751C539.812 299.67 540.542 300.88 540.87 302.22C541.198 303.56 541.109 304.966 540.613 306.255C540.118 307.543 539.239 308.651 538.095 309.434C536.95 310.216 535.593 310.635 534.202 310.637C532.812 310.637 531.455 310.219 530.309 309.437C529.163 308.655 528.284 307.548 527.787 306.261C527.29 304.972 527.199 303.566 527.526 302.226C527.853 300.886 528.582 299.674 529.617 298.756Z" fill="#A0616A"/>
<path d="M543.383 260.384L525.246 264.108L523.66 257.837L521.811 255.892L518.118 236.699L512.817 225.456L514.195 187.01L527.656 194.091L527.672 194.103C529.73 196.32 531.15 199.492 533.509 202.675C540.943 212.706 541.767 237.082 541.542 250.433C541.539 250.652 541.761 250.884 542.029 251.127C543.293 252.28 544.12 253.83 544.367 255.517C544.614 257.204 544.266 258.922 543.383 260.384Z" fill="#E180A3"/>
<path d="M447.487 300.654L452.529 252.253L453.859 232.334L439.749 229.802C439.749 229.802 440.307 244.046 438.458 252.082C436.634 260.013 438.217 299.591 438.329 300.649C437.293 301.568 436.563 302.778 436.235 304.118C435.906 305.458 435.996 306.866 436.492 308.153C436.987 309.442 437.866 310.551 439.01 311.332C440.155 312.115 441.512 312.535 442.903 312.535C444.292 312.535 445.651 312.117 446.796 311.337C447.942 310.555 448.82 309.448 449.317 308.159C449.814 306.872 449.906 305.464 449.579 304.124C449.252 302.784 448.522 301.574 447.487 300.654Z" fill="#A0616A"/>
<path d="M464.291 227.353L460.36 235.696L458.988 238.6L455.292 257.792L453.449 259.734L451.86 266.007L451.112 265.856L437.648 263.09L433.724 262.286C432.839 260.824 432.491 259.103 432.737 257.416C432.983 255.729 433.81 254.178 435.076 253.026C435.346 252.786 435.567 252.55 435.561 252.33C435.338 238.981 436.162 214.606 443.596 204.575C445.957 201.391 447.373 198.22 449.434 196.005C449.442 195.998 449.442 195.992 449.448 195.992L454.464 187.846L454.77 187.346L455.115 187.175L464.291 227.353Z" fill="#E180A3"/>
<path d="M488.103 167.075C498.312 167.075 506.588 158.867 506.588 148.742C506.588 138.616 498.312 130.408 488.103 130.408C477.895 130.408 469.62 138.616 469.62 148.742C469.62 158.867 477.895 167.075 488.103 167.075Z" fill="#A0616A"/>
<path d="M508.883 140.699C508.82 137.572 508.462 133.572 506.255 130.382C504.392 127.699 500.633 125.572 497.129 126.635C497.169 125.941 497.012 125.249 496.679 124.636C496.347 124.024 495.848 123.515 495.24 123.167C493.913 122.363 492.319 122.217 490.908 122.085C487.353 121.755 483.671 121.414 480.072 122.091C476.033 122.85 472.727 124.914 471.011 127.756L470.972 127.844L470.622 129.528C470.575 129.754 470.479 129.967 470.341 130.152C470.204 130.338 470.028 130.492 469.824 130.604C469.62 130.717 469.394 130.784 469.161 130.801C468.929 130.817 468.695 130.782 468.477 130.699C468.239 130.61 467.982 130.585 467.731 130.625C467.48 130.665 467.243 130.77 467.045 130.928C466.848 131.087 466.694 131.294 466.602 131.529C466.51 131.764 466.482 132.019 466.518 132.269L466.614 132.939L465.598 132.75C465.345 132.701 465.082 132.72 464.837 132.806C464.592 132.892 464.375 133.04 464.208 133.237C464.04 133.434 463.929 133.672 463.885 133.925C463.841 134.179 463.867 134.439 463.96 134.68L464.24 135.446C464.03 135.449 463.823 135.493 463.632 135.577C463.44 135.661 463.267 135.782 463.124 135.933C462.919 136.154 462.789 136.433 462.755 136.731C462.721 137.029 462.782 137.331 462.932 137.591C464.069 139.517 465.681 141.124 467.615 142.263C468.486 142.782 469.424 143.181 470.405 143.446C470.608 143.503 470.82 143.554 471.035 143.598C478.871 145.273 486.948 145.513 494.871 144.307C494.404 145.857 494.225 147.478 494.34 149.092C494.595 151.111 495.789 152.776 497.385 153.332C497.746 153.454 498.117 153.543 498.494 153.598C498.856 153.656 499.213 153.743 499.561 153.858C500.074 154.044 500.528 154.362 500.878 154.779C501.227 155.195 501.46 155.696 501.553 156.23C501.644 156.765 501.592 157.314 501.402 157.822C501.211 158.33 500.888 158.779 500.467 159.124C500.467 159.124 502.139 160.497 502.349 160.428C503.171 160.068 503.858 159.461 504.314 158.693C507.499 154.149 509.037 148.098 508.883 140.699Z" fill="#2F2E41"/>
</g>
</g>
</g>
<defs>
<clipPath id="clip0_16_76">
<rect width="700" height="580" fill="white"/>
</clipPath>
<clipPath id="clip1_16_76">
<rect width="494" height="424" fill="white" transform="translate(103 49)"/>
</clipPath>
</defs>
</svg>
