<svg width="600" height="496" viewBox="0 0 700 580" fill="none" xmlns="http://www.w3.org/2000/svg">
<g clip-path="url(#clip0_16_77)">
<circle cx="179.5" cy="475.5" r="45.5" fill="#FFA602"/>
<ellipse cx="139" cy="364.5" rx="139" ry="139.5" fill="#6EB9AB"/>
<circle cx="549" cy="429" r="151" fill="#4E4F9C"/>
<ellipse cx="357.5" cy="271.5" rx="270.5" ry="271.5" fill="#E180A3"/>
<circle cx="357" cy="271" r="241" fill="#D9D9D9"/>
<g clip-path="url(#clip1_16_77)">
<mask id="mask0_16_77" style="mask-type:luminance" maskUnits="userSpaceOnUse" x="66" y="82" width="570" height="377">
<path d="M636 82H66V459H636V82Z" fill="white"/>
</mask>
<g mask="url(#mask0_16_77)">
<path d="M542.52 404.329V408.587V426L554.206 409.5L554.091 387.064L560.125 220.383L548.056 217.965L540.89 216.533L540.768 216.51L524.624 213.283L521.167 212.59L508.104 209.98H508.096L502.933 208.941L463.776 201.109L457.46 199.846L444.642 197.282L438.111 185.608C438.111 185.601 438.103 185.593 438.103 185.593L431.396 173.619L431.388 173.611L429.997 171.116L422.256 157.287C422.256 157.279 422.256 157.271 422.248 157.271L420.934 154.93L419.068 155.292L417.92 155.516L414.699 156.147L413.667 156.347L402.249 158.58L395.305 159.936L377.691 163.378L364.216 166.004L322.566 174.143L305.877 177.4C301.733 178.209 297.832 179.61 294.253 181.504C279.753 189.189 270.59 204.967 271.829 222.177L276.77 290.841L288.334 295.484L397.607 339.353L401.37 456.367L401.416 457.661H412.75V456.367L412.903 334.733L486.997 295.162H487.003L501.29 287.522L509.764 283.003L515.699 279.83L528.196 273.153L538.329 267.74L538.382 269.35V269.357L540.462 328.611V328.657L542.504 386.787L542.512 387.064L542.52 404.329Z" fill="#F2F2F2"/>
<path d="M353.923 129.034C352.21 125.785 347.284 118.831 341.61 111.023C340.553 109.568 339.475 108.089 338.389 106.595C336.455 103.954 334.489 101.267 332.584 98.6486C331.368 96.9238 328.989 96.5157 327.276 97.7324L315.866 105.864C314.152 107.081 313.74 109.475 314.956 111.2L318.39 116.09L319.292 117.376L320.623 119.27L322.222 121.542V121.549L322.673 122.181L324.264 124.453L325.143 125.7L332.845 136.665L336.302 141.586C337.51 143.311 339.889 143.719 341.602 142.502L351.528 135.425L352.928 134.432L353.013 134.371C354.726 133.154 355.138 130.759 353.923 129.034Z" fill="#005E5D"/>
<path d="M341.594 110.854L338.619 106.626C338.565 106.549 338.466 106.534 338.397 106.588L338.389 106.595C338.321 106.642 338.306 106.734 338.358 106.811L341.333 111.046C341.38 111.115 341.478 111.131 341.556 111.085C341.579 111.069 341.594 111.046 341.61 111.023C341.631 110.969 341.631 110.908 341.594 110.854Z" fill="#005E5D"/>
<path d="M332.286 98.8581L353.629 129.244C354.682 130.745 354.384 132.799 352.985 133.938C352.965 133.955 352.943 133.972 352.921 133.989C352.884 134.018 352.846 134.047 352.806 134.075C352.806 134.075 352.654 134.167 352.376 134.335C352.095 134.505 351.686 134.752 351.174 135.058C351.021 135.15 350.859 135.246 350.689 135.348C350.348 135.551 349.974 135.773 349.573 136.01C349.412 136.105 349.247 136.202 349.077 136.302C348.212 136.812 347.24 137.38 346.21 137.973C346.037 138.073 345.861 138.174 345.685 138.276C345.638 138.302 336.841 141.729 336.592 141.375L315.251 110.988C314.152 109.426 314.521 107.263 316.072 106.158L317.75 104.964C318.019 104.773 318.382 104.83 318.593 105.083C318.609 105.099 318.623 105.116 318.638 105.131C318.878 105.367 319.256 105.38 319.529 105.185L325.426 100.987C325.699 100.792 325.813 100.428 325.673 100.123C325.663 100.103 325.653 100.084 325.642 100.064C325.475 99.7787 325.543 99.4151 325.812 99.2242L327.489 98.0296C329.042 96.9244 331.189 97.2953 332.286 98.8581Z" fill="#005E5D"/>
<path d="M319.285 117.222L318.535 116.159C318.505 116.113 318.451 116.082 318.389 116.09C318.366 116.09 318.337 116.105 318.314 116.121C318.244 116.175 318.221 116.275 318.275 116.344L319.016 117.407C319.071 117.476 319.169 117.499 319.247 117.445C319.27 117.43 319.285 117.407 319.291 117.376C319.315 117.33 319.315 117.268 319.285 117.222Z" fill="#005E5D"/>
<path d="M322.206 121.388L320.768 119.332C320.73 119.285 320.677 119.263 320.623 119.27C320.592 119.27 320.561 119.278 320.546 119.293C320.47 119.347 320.455 119.447 320.509 119.524L321.947 121.573C321.999 121.642 322.1 121.665 322.168 121.611C322.191 121.596 322.206 121.573 322.222 121.549V121.542C322.245 121.495 322.245 121.434 322.206 121.388Z" fill="#005E5D"/>
<path d="M324.249 124.298L322.811 122.243C322.772 122.196 322.72 122.173 322.673 122.181C322.642 122.181 322.611 122.189 322.588 122.204C322.513 122.258 322.497 122.358 322.551 122.435L323.988 124.483C324.042 124.553 324.141 124.576 324.21 124.522C324.233 124.506 324.257 124.483 324.264 124.453C324.287 124.406 324.287 124.345 324.249 124.298Z" fill="#005E5D"/>
<path d="M317.891 105.559L315.657 107.149C315.567 107.214 315.546 107.34 315.609 107.431C315.674 107.523 315.799 107.544 315.89 107.48L318.124 105.89C318.213 105.825 318.235 105.699 318.172 105.607C318.107 105.516 317.982 105.494 317.891 105.559Z" fill="#E6E6E6"/>
<path d="M326.598 99.782C326.776 99.782 326.919 99.6369 326.919 99.458C326.919 99.279 326.776 99.1339 326.598 99.1339C326.421 99.1339 326.277 99.279 326.277 99.458C326.277 99.6369 326.421 99.782 326.598 99.782Z" fill="#E6E6E6"/>
<path d="M327.321 99.2675C327.499 99.2675 327.643 99.1225 327.643 98.9436C327.643 98.7646 327.499 98.6195 327.321 98.6195C327.144 98.6195 327 98.7646 327 98.9436C327 99.1225 327.144 99.2675 327.321 99.2675Z" fill="#E6E6E6"/>
<path d="M328.044 98.7531C328.222 98.7531 328.365 98.608 328.365 98.429C328.365 98.2501 328.222 98.105 328.044 98.105C327.866 98.105 327.721 98.2501 327.721 98.429C327.721 98.608 327.866 98.7531 328.044 98.7531Z" fill="#E6E6E6"/>
<path d="M413.668 117.584H369.31V159.936H413.668V117.584Z" fill="#2F2E41"/>
<path d="M337.963 131.329C336.574 133.602 334.788 135.371 332.947 136.47L321.064 158.964L310.598 152.958L323.779 130.787C323.924 128.635 324.689 126.235 326.079 123.962C329.255 118.769 334.489 116.209 337.771 118.244C341.052 120.279 341.139 126.137 337.963 131.329Z" fill="#A0616A"/>
<path d="M539.632 432.365L549.172 430.439L544.868 386.312L530.788 389.151L539.632 432.365Z" fill="#A0616A"/>
<path d="M576.647 444.924C577.009 446.537 576.164 448.104 574.76 448.422L555.922 452.69C555.922 452.69 552.391 445.606 544.111 444.091L545.988 454.941L536.27 457.143L533.59 439.619C533.59 439.619 528.928 430.976 533.272 425.034C537.616 419.091 533.389 420.738 533.389 420.738L533.127 409.577L548.2 407.989L552.056 424.73L562.901 439.757L574.516 442.587C575.549 442.84 576.388 443.757 576.647 444.924Z" fill="#2F2E41"/>
<path d="M375.045 206.523L375.811 211.913C375.811 211.913 391.872 229.624 395.695 237.324L442.086 214.223L433.934 194.972L375.045 206.523Z" fill="#A0616A"/>
<path d="M433.17 212.683C433.17 212.683 389.823 225.003 393.525 237.324C397.224 249.644 399.51 254.705 399.51 254.705C399.51 254.705 391.107 273.516 417.109 281.985C443.113 290.456 498.942 296.617 498.942 296.617L532.211 407.117L547.889 402.881L535.161 275.634L472.94 253.495L476.763 230.394L463.761 235.784L442.086 211.631L433.17 212.683Z" fill="#4E4F9C"/>
<path d="M497.944 320.41L507.202 323.431L524.887 282.822L511.226 278.363L497.944 320.41Z" fill="#A0616A"/>
<path d="M524.128 349.596C523.659 351.181 522.16 352.131 520.781 351.716L502.277 346.161C502.277 346.161 502.64 338.244 496.155 332.843L492.52 343.232L482.974 340.364L489.151 323.762C489.151 323.762 489.283 313.926 495.959 310.884C502.635 307.84 498.149 307.196 498.149 307.196L503.343 297.331L517.261 303.37L512.489 319.87L514.649 338.318L523.402 346.508C524.182 347.236 524.467 348.449 524.128 349.596Z" fill="#2F2E41"/>
<path d="M460.007 237.324L476.763 230.394L515.767 204.983C515.767 204.983 545.594 180.96 547.889 213.377C550.183 245.795 528.769 295.846 528.769 295.846L501.236 288.146L504.033 253.831L467.967 264.66L460.007 237.324Z" fill="#4E4F9C"/>
<path d="M417.753 151.729L438.905 209.218L467.586 241.175L495.884 222.693L463.187 214.223L464.053 194.972L417.753 151.729Z" fill="#E180A3"/>
<path d="M293.535 456.007V457.661H282.146L282.116 456.007L278.176 244.416H292.928L292.957 250.35L293.535 456.007Z" fill="#F2F2F2"/>
<path d="M530.546 226.193C528.167 225.016 526.25 223.395 524.988 221.653L501.618 211.879L506.562 200.819L529.736 211.924C531.877 211.866 534.322 212.405 536.701 213.582C542.137 216.271 545.165 221.275 543.466 224.757C541.766 228.24 535.981 228.883 530.546 226.193Z" fill="#A0616A"/>
<path d="M407.167 148.77L412.572 146.409C412.572 146.409 433.934 152.535 435.847 156.043C437.759 159.551 448.465 174.181 448.465 174.181L524.18 206.523L517.298 220.383L463.761 206.523L434.699 175.721L407.167 148.77Z" fill="#E180A3"/>
<path d="M398.755 144.15L373.516 142.61L360.516 149.54L375.045 214.223C375.045 214.223 417.838 195.742 436.594 201.517C436.594 201.517 443.377 183.82 431.39 173.611L411.755 147.23L398.755 144.15Z" fill="#FFA602"/>
<path d="M371.987 146.46L371.744 143.962L346.749 153.39C346.749 153.39 337.57 160.321 334.512 163.401C331.453 166.481 322.275 172.641 322.275 172.641L329.922 144.92L317.687 139.53C317.687 139.53 280.977 188.042 298.566 191.892C316.157 195.742 346.749 188.812 346.749 188.812L348.278 274.285L412.138 276.211L385.753 187.272L371.987 146.46Z" fill="#E180A3"/>
<path d="M391.019 139.161C402.964 139.161 412.648 129.412 412.648 117.385C412.648 105.358 402.964 95.6087 391.019 95.6087C379.075 95.6087 369.392 105.358 369.392 117.385C369.392 129.412 379.075 139.161 391.019 139.161Z" fill="#A0616A"/>
<path d="M380.782 82.1623C366.958 84.3164 367.618 89.488 363.191 92.1727C355.393 96.9025 352.318 110.561 356.436 119.574C357.536 121.982 359.856 125.267 358.73 128.814C357.865 131.537 355.373 133.143 354.905 133.434C351.076 135.815 353.576 132.983 351.846 134.974C349.936 137.173 352.895 140.278 351.082 144.215C349.474 147.705 346.159 147.41 345.728 149.605C344.986 153.384 353.496 160.983 362.553 160.385C370.618 159.853 376.608 152.989 378.615 146.525C379.957 142.195 380.538 134.746 377.084 131.124C376.6 130.616 375.277 129.386 374.025 127.274C373.035 125.603 371.731 123.403 372.496 121.884C373.309 120.266 375.616 121.117 377.084 119.574C379.077 117.48 376.71 113.943 377.084 110.333C377.719 104.221 386.321 96.8691 395.44 98.0127C405.783 99.3102 409.579 110.636 409.971 111.873C410.783 114.439 410.768 116.92 410.736 121.884C410.689 129.007 410.66 133.471 408.442 138.054C405.25 144.647 401.185 143.934 400.028 148.835C398.225 156.476 406.705 164.149 407.675 165.006C414.868 171.353 425.73 173.262 427.561 170.396C429.21 167.813 421.967 163.796 422.207 155.765C422.415 148.806 428.009 146.684 426.796 141.905C425.46 136.643 418.334 137.844 415.323 131.894C412.514 126.341 417.693 123.26 416.854 111.873C416.677 109.465 415.924 102.552 411.5 95.7027C409.551 92.6853 407.569 89.6166 403.852 88.0024C399.692 86.1952 388.093 81.0228 380.782 82.1623Z" fill="#2F2E41"/>
<path d="M371.603 101.413C372.165 106.181 379.277 108.518 382.311 109.113C383.596 109.366 387.939 110.217 392.253 108.343C393.849 107.651 394.429 107.024 396.078 106.803C398.31 106.504 399.433 107.359 402.961 108.343C406.883 109.438 408.843 109.986 409.844 109.113C411.478 107.688 410.223 103.023 408.313 99.873C404.785 94.0479 398.325 92.244 395.313 91.4027C391.87 90.4414 384.885 88.4908 378.486 92.1727C377.632 92.665 371.033 96.5684 371.603 101.413Z" fill="#2F2E41"/>
<path d="M538.867 226.343C528.661 231.135 524.604 224.876 524.604 224.876L524.608 223.011L524.638 199.017C531.747 194.346 543.744 201.131 543.744 201.131L539.128 224.993L538.867 226.343Z" fill="#3F3D56"/>
<path d="M542.169 196.744C542.169 196.744 531.616 192.195 525.917 195.621C525.917 195.621 519.975 201.685 524.629 203.448L542.951 205.236C542.951 205.236 547.117 202.423 545.3 200.108C543.482 197.794 542.169 196.744 542.169 196.744Z" fill="#005E5D"/>
<path d="M220.798 375.196C218.778 375.323 217.661 372.796 219.189 371.323L219.341 370.715C219.321 370.667 219.301 370.619 219.281 370.569C217.234 365.656 213.568 370.295 208.285 370.625C200.516 371.109 200.632 377.027 203.642 383.944C204.459 385.822 197.523 370.669 197.523 360.498C197.523 357.941 197.662 355.386 197.946 352.836C198.18 350.751 198.502 348.679 198.918 346.625C201.173 335.524 206.054 324.951 213.094 316.12C216.479 314.258 219.301 311.346 221.006 307.856C221.618 306.597 226.881 305.533 227.108 304.154C226.723 304.205 220.873 298.007 221.164 297.646C220.628 296.825 219.667 296.417 219.08 295.616C216.165 291.637 212.148 292.332 210.051 297.74C205.571 300.016 205.528 303.792 208.276 307.423C210.025 309.733 210.265 312.859 211.8 315.332C211.642 315.535 211.478 315.732 211.32 315.935C211.259 316.015 211.199 316.092 211.138 316.171C208.662 319.398 203.716 318.571 202.337 314.738C202.236 314.459 201.383 329.607 202.025 313.926C202.667 298.247 197.067 306.23 194.231 302.613C190.844 298.294 183.954 300.258 183.358 305.727C183.352 305.78 183.346 305.832 183.341 305.885C183.76 306.123 184.171 306.376 184.572 306.642C186.859 308.166 186.068 311.736 183.358 312.156L183.296 312.165C183.448 313.686 183.707 315.192 184.086 316.674C180.468 330.761 188.276 335.895 199.428 336.127L200.009 336.961C198.953 340.02 198.104 343.152 197.466 346.325C196.866 349.27 196.449 352.245 196.216 355.233L196.206 355.361C196.013 357.902 192.818 358.983 191.213 357.013C190.804 356.51 190.386 356.071 189.965 355.722C185.129 351.724 178.299 350.25 173.083 347.036C170.572 345.489 167.354 347.489 167.792 350.419L167.814 350.561C168.59 350.879 169.348 351.246 170.081 351.661C170.5 351.898 170.911 352.151 171.313 352.419C173.6 353.943 172.808 357.513 170.098 357.931L170.036 357.941C169.992 357.947 169.954 357.955 169.91 357.961L169.95 358.056C171.694 362.187 175.862 364.862 180.313 364.617C185.553 364.328 192.061 368.739 197.801 376.538H197.807C198.944 381.523 200.604 386.393 202.739 391.033H220.356C220.419 390.836 220.476 390.633 220.532 390.436C218.903 390.536 217.262 390.442 215.658 390.142C216.965 388.527 218.272 386.9 219.579 385.285C219.611 385.254 219.636 385.223 219.661 385.19C220.324 384.363 220.994 383.544 221.657 382.717C221.698 380.181 221.396 377.65 220.798 375.196Z" fill="#F2F2F2"/>
<path d="M508 458C508 458.552 507.805 459 507.565 459H206.211L206 457H507.565C507.805 457 508 457.447 508 458Z" fill="#E6E6E6"/>
<path d="M164.771 387.143L173.569 459L241.026 458.016L241.857 387.143H164.771Z" fill="#F2F2F2"/>
</g>
</g>
</g>
<defs>
<clipPath id="clip0_16_77">
<rect width="700" height="580" fill="white"/>
</clipPath>
<clipPath id="clip1_16_77">
<rect width="570" height="377" fill="white" transform="translate(66 82)"/>
</clipPath>
</defs>
</svg>
