<svg width="369" height="243" viewBox="0 0 369 243" fill="none" xmlns="http://www.w3.org/2000/svg">
<g clip-path="url(#clip0_20_112)">
<path d="M316.089 237.357L316.099 241.303V242.137H308.499V240.886L308.494 225.455L308.484 210.506V207.761L308.479 196.633L308.474 196.454L307.152 158.986V158.956L305.805 120.763V120.759L305.771 119.721L299.211 123.21L291.121 127.514L287.279 129.559L281.793 132.472L272.544 137.396H272.54L224.574 162.902L224.475 241.303V242.137H217.138L217.108 241.303L214.672 165.88L143.932 137.604L136.446 134.611L133.247 90.353C132.445 79.26 138.377 69.0901 147.764 64.1367C150.081 62.9157 152.606 62.0124 155.289 61.4912L166.093 59.3917L193.056 54.1455L201.779 52.453L213.182 50.2343L217.677 49.3608L225.069 47.9214L225.737 47.7924L227.822 47.3854L228.565 47.2414L229.773 47.0082L230.624 48.517C230.629 48.517 230.629 48.522 230.629 48.527L235.64 57.4411L236.541 59.0493L236.546 59.0542L240.888 66.7722C240.888 66.7722 240.893 66.7771 240.893 66.7821L245.121 74.3066L253.419 75.9593L257.508 76.7733L282.857 81.8211L286.199 82.4911H286.204L294.661 84.1737L296.899 84.6204L307.35 86.7L307.429 86.7149L312.068 87.6381L319.881 89.1966L315.975 196.633L316.049 222.825V222.83L316.089 237.357Z" fill="#0C2340"/>
<path d="M186.392 30.3165C185.283 28.2219 182.094 23.74 178.421 18.7072C177.737 17.7691 177.039 16.8162 176.336 15.8533C175.084 14.1508 173.811 12.4186 172.578 10.7311C171.791 9.61931 170.251 9.35627 169.142 10.1405L161.755 15.3817C160.646 16.166 160.379 17.7096 161.166 18.8213L163.389 21.9731L163.973 22.8019L164.835 24.0229L165.87 25.4871V25.4921L166.162 25.8991L167.192 27.3633L167.761 28.1673L172.747 35.2351L174.985 38.4067C175.767 39.5185 177.307 39.7816 178.416 38.9973L184.842 34.436L185.748 33.7958L185.803 33.7561C186.912 32.9718 187.179 31.4282 186.392 30.3165Z" fill="#005E5D"/>
<path d="M178.411 18.598L176.485 15.8731C176.45 15.8235 176.386 15.8135 176.341 15.8483L176.336 15.8533C176.292 15.883 176.282 15.9426 176.316 15.9923L178.242 18.7221C178.272 18.7667 178.336 18.7767 178.386 18.7469C178.401 18.737 178.411 18.7221 178.421 18.7072C178.435 18.6724 178.435 18.6327 178.411 18.598Z" fill="#005E5D"/>
<path d="M172.385 10.8661L186.202 30.452C186.884 31.4193 186.691 32.7429 185.785 33.4775C185.772 33.4883 185.758 33.4994 185.744 33.5101C185.72 33.5291 185.695 33.5473 185.669 33.5654C185.669 33.5654 185.571 33.6249 185.391 33.7333C185.209 33.843 184.944 34.0019 184.613 34.199C184.514 34.2584 184.409 34.3205 184.299 34.3861C184.078 34.5168 183.836 34.6602 183.576 34.8129C183.472 34.8741 183.365 34.9369 183.255 35.0012C182.695 35.33 182.066 35.6961 181.399 36.0778C181.287 36.1428 181.173 36.2079 181.059 36.2732C181.029 36.2901 175.334 38.4993 175.173 38.2708L161.357 18.6849C160.646 17.6776 160.885 16.2839 161.889 15.5715L162.975 14.8015C163.149 14.6785 163.384 14.7152 163.521 14.8782C163.531 14.8888 163.54 14.8994 163.55 14.9094C163.705 15.0614 163.95 15.0699 164.127 14.9444L167.944 12.2381C168.121 12.1127 168.195 11.8781 168.104 11.6814C168.098 11.6684 168.091 11.656 168.084 11.6436C167.976 11.4595 168.02 11.2251 168.194 11.1021L169.28 10.3321C170.285 9.61974 171.675 9.85878 172.385 10.8661Z" fill="#005E5D"/>
<path d="M163.969 22.7027L163.483 22.0177C163.464 21.988 163.429 21.9681 163.389 21.9731C163.374 21.9731 163.355 21.983 163.34 21.9929C163.295 22.0277 163.28 22.0922 163.315 22.1369L163.795 22.8218C163.83 22.8665 163.894 22.8814 163.944 22.8466C163.959 22.8367 163.969 22.8218 163.973 22.8019C163.988 22.7722 163.988 22.7325 163.969 22.7027Z" fill="#005E5D"/>
<path d="M165.86 25.3879L164.929 24.0626C164.904 24.0328 164.87 24.018 164.835 24.0229C164.815 24.0229 164.795 24.0279 164.785 24.0378C164.736 24.0726 164.726 24.1371 164.761 24.1867L165.692 25.507C165.726 25.5516 165.791 25.5665 165.835 25.5318C165.85 25.5219 165.86 25.507 165.87 25.4921V25.4871C165.885 25.4573 165.885 25.4176 165.86 25.3879Z" fill="#005E5D"/>
<path d="M167.182 27.264L166.251 25.9388C166.226 25.909 166.192 25.8941 166.162 25.8991C166.142 25.8991 166.122 25.904 166.107 25.914C166.058 25.9487 166.048 26.0133 166.083 26.0629L167.013 27.3831C167.048 27.4278 167.112 27.4427 167.157 27.408C167.172 27.398 167.187 27.3831 167.192 27.3633C167.207 27.3335 167.207 27.2938 167.182 27.264Z" fill="#005E5D"/>
<path d="M163.066 15.1851L161.62 16.2101C161.562 16.2518 161.548 16.3332 161.589 16.3921C161.631 16.451 161.712 16.4649 161.771 16.4233L163.217 15.3983C163.275 15.3567 163.289 15.2752 163.248 15.2163C163.206 15.1575 163.125 15.1435 163.066 15.1851Z" fill="#E6E6E6"/>
<path d="M168.703 11.4616C168.818 11.4616 168.911 11.3681 168.911 11.2528C168.911 11.1374 168.818 11.0439 168.703 11.0439C168.588 11.0439 168.495 11.1374 168.495 11.2528C168.495 11.3681 168.588 11.4616 168.703 11.4616Z" fill="#E6E6E6"/>
<path d="M169.171 11.13C169.286 11.13 169.379 11.0365 169.379 10.9212C169.379 10.8058 169.286 10.7123 169.171 10.7123C169.056 10.7123 168.963 10.8058 168.963 10.9212C168.963 11.0365 169.056 11.13 169.171 11.13Z" fill="#E6E6E6"/>
<path d="M169.639 10.7984C169.754 10.7984 169.847 10.7049 169.847 10.5895C169.847 10.4742 169.754 10.3807 169.639 10.3807C169.524 10.3807 169.43 10.4742 169.43 10.5895C169.43 10.7049 169.524 10.7984 169.639 10.7984Z" fill="#E6E6E6"/>
<path d="M225.069 22.936H196.353V50.2344H225.069V22.936Z" fill="#2F2E41"/>
<path d="M176.06 31.7959C175.161 33.2609 174.005 34.4007 172.813 35.1094L165.12 49.6084L158.345 45.737L166.878 31.4461C166.972 30.0592 167.467 28.512 168.367 27.0469C170.423 23.7001 173.811 22.0501 175.936 23.3615C178.06 24.6729 178.116 28.4491 176.06 31.7959Z" fill="#A0616A"/>
<path d="M306.614 225.832L312.79 224.591L310.004 196.148L300.889 197.978L306.614 225.832Z" fill="#A0616A"/>
<path d="M330.577 233.927C330.811 234.967 330.264 235.977 329.355 236.182L317.16 238.933C317.16 238.933 314.874 234.367 309.514 233.39L310.729 240.384L304.438 241.803L302.703 230.508C302.703 230.508 299.685 224.937 302.497 221.107C305.309 217.276 302.573 218.338 302.573 218.338L302.403 211.144L312.161 210.12L314.657 220.911L321.678 230.597L329.197 232.421C329.866 232.584 330.409 233.175 330.577 233.927Z" fill="#2F2E41"/>
<path d="M200.066 80.2626L200.562 83.737C200.562 83.737 210.959 95.1527 213.434 100.116L243.466 85.226L238.189 72.8176L200.066 80.2626Z" fill="#A0616A"/>
<path d="M237.694 84.2333C237.694 84.2333 209.633 92.1746 212.029 100.116C214.424 108.057 215.904 111.319 215.904 111.319C215.904 111.319 210.464 123.444 227.297 128.903C244.131 134.363 280.273 138.334 280.273 138.334L301.81 209.558L311.96 206.828L303.72 124.809L263.44 110.539L265.915 95.649L257.498 99.1233L243.466 83.5552L237.694 84.2333Z" fill="#4E4F9C"/>
<path d="M279.627 153.67L285.62 155.617L297.069 129.442L288.225 126.568L279.627 153.67Z" fill="#A0616A"/>
<path d="M296.578 172.482C296.274 173.504 295.304 174.116 294.411 173.849L282.432 170.268C282.432 170.268 282.667 165.165 278.469 161.684L276.116 168.38L269.936 166.532L273.935 155.831C273.935 155.831 274.02 149.491 278.342 147.53C282.664 145.568 279.76 145.153 279.76 145.153L283.122 138.794L292.132 142.687L289.043 153.322L290.441 165.213L296.108 170.492C296.613 170.961 296.797 171.743 296.578 172.482Z" fill="#2F2E41"/>
<path d="M255.068 100.116L265.915 95.649L291.165 79.2699C291.165 79.2699 310.474 63.7859 311.96 84.6808C313.445 105.576 299.582 137.837 299.582 137.837L281.758 132.874L283.569 110.756L260.221 117.736L255.068 100.116Z" fill="#4E4F9C"/>
<path d="M227.714 44.9447L241.407 81.9998L259.974 102.598L278.293 90.6856L257.126 85.226L257.687 72.8176L227.714 44.9447Z" fill="#E180A3"/>
<path d="M147.299 241.071V242.137H139.926L139.907 241.071L137.356 104.687H146.906L146.925 108.512L147.299 241.071Z" fill="#3F3D56"/>
<path d="M300.732 92.9415C299.192 92.1827 297.951 91.1381 297.134 90.015L282.005 83.7152L285.206 76.5864L300.208 83.7444C301.594 83.7067 303.177 84.0539 304.717 84.8127C308.236 86.5462 310.196 89.7713 309.096 92.016C307.996 94.2607 304.251 94.6751 300.732 92.9415Z" fill="#A0616A"/>
<path d="M220.861 43.0375L224.36 41.5153C224.36 41.5153 238.189 45.4645 239.427 47.7253C240.665 49.9862 247.596 59.4166 247.596 59.4166L296.611 80.2626L292.156 89.1966L257.498 80.2626L238.684 60.4092L220.861 43.0375Z" fill="#E180A3"/>
<path d="M215.415 40.0595L199.076 39.0668L190.66 43.5338L200.066 85.2259C200.066 85.2259 227.769 73.3139 239.911 77.0364C239.911 77.0364 244.302 65.6296 236.542 59.0487L223.831 42.0448L215.415 40.0595Z" fill="#FFA602"/>
<path d="M198.086 41.5485L197.929 39.9386L181.748 46.0155C181.748 46.0155 175.806 50.4825 173.826 52.4679C171.846 54.4532 165.904 58.4239 165.904 58.4239L170.855 40.5558L162.934 37.0815C162.934 37.0815 139.169 68.3506 150.556 70.8322C161.944 73.3139 181.748 68.8469 181.748 68.8469L182.738 123.94L224.079 125.181L206.998 67.8542L198.086 41.5485Z" fill="#E180A3"/>
<path d="M210.407 36.8439C218.14 36.8439 224.409 30.5597 224.409 22.8078C224.409 15.0558 218.14 8.77167 210.407 8.77167C202.675 8.77167 196.406 15.0558 196.406 22.8078C196.406 30.5597 202.675 36.8439 210.407 36.8439Z" fill="#A0616A"/>
<path d="M203.78 0.104581C194.831 1.49307 195.258 4.82648 192.392 6.55693C187.344 9.60558 185.353 18.4092 188.019 24.2186C188.731 25.7708 190.233 27.8883 189.504 30.1746C188.944 31.9297 187.331 32.9651 187.028 33.1526C184.549 34.6873 186.168 32.8616 185.048 34.1453C183.811 35.5623 185.727 37.5638 184.553 40.1013C183.512 42.3509 181.366 42.161 181.087 43.5756C180.607 46.0116 186.116 50.9095 191.979 50.5243C197.2 50.1814 201.078 45.757 202.377 41.5903C203.246 38.7992 203.622 33.9981 201.386 31.6636C201.073 31.3362 200.216 30.5433 199.406 29.1819C198.765 28.1046 197.921 26.6865 198.416 25.7076C198.942 24.6647 200.436 25.2136 201.386 24.2186C202.676 22.8692 201.144 20.5893 201.386 18.2626C201.797 14.3227 207.366 9.58407 213.269 10.3212C219.965 11.1575 222.422 18.4575 222.676 19.2553C223.202 20.9087 223.192 22.5083 223.171 25.7076C223.141 30.2988 223.122 33.1764 221.686 36.1306C219.62 40.3796 216.988 39.9206 216.239 43.0793C215.072 48.0042 220.562 52.9504 221.19 53.5023C225.846 57.5937 232.878 58.8239 234.063 56.9767C235.131 55.3121 230.442 52.7228 230.597 47.5463C230.732 43.0605 234.353 41.693 233.568 38.6123C232.703 35.2211 228.09 35.9947 226.141 32.16C224.322 28.5806 227.675 26.5946 227.132 19.2553C227.017 17.7027 226.53 13.2468 223.666 8.83223C222.404 6.88737 221.121 4.90936 218.715 3.86889C216.022 2.70408 208.513 -0.629863 203.78 0.104581Z" fill="#2F2E41"/>
<path d="M197.838 12.513C198.202 15.5864 202.806 17.0927 204.77 17.4763C205.602 17.6388 208.413 18.1878 211.206 16.98C212.239 16.5335 212.615 16.1297 213.682 15.9873C215.127 15.7945 215.854 16.3454 218.138 16.98C220.677 17.6856 221.946 18.0385 222.594 17.4763C223.652 16.5573 222.839 13.5509 221.603 11.5203C219.319 7.76561 215.137 6.60293 213.187 6.06061C210.958 5.44104 206.436 4.18372 202.294 6.55695C201.741 6.87424 197.469 9.39026 197.838 12.513Z" fill="#2F2E41"/>
<path d="M306.119 93.0379C299.512 96.1267 296.886 92.0928 296.886 92.0928L296.888 90.8904L296.908 75.425C301.51 72.4139 309.276 76.7872 309.276 76.7872L306.288 92.1678L306.119 93.0379Z" fill="#3F3D56"/>
<path d="M308.257 73.9595C308.257 73.9595 301.425 71.0274 297.736 73.2358C297.736 73.2358 293.889 77.1447 296.902 78.2811L308.763 79.4333C308.763 79.4333 311.46 77.6201 310.284 76.1282C309.107 74.6363 308.257 73.9595 308.257 73.9595Z" fill="#005E5D"/>
<path d="M63.9409 196.684L69.6369 243L113.306 242.366L113.844 196.684H63.9409Z" fill="#F2F2F2"/>
<path d="M100.211 188.983C98.9032 189.065 98.1806 187.436 99.1698 186.487L99.2682 186.095C99.2553 186.064 99.2424 186.033 99.2293 186.001C97.9039 182.834 95.5307 185.824 92.1108 186.037C87.0811 186.349 87.1562 190.163 89.1047 194.622C89.6336 195.832 85.1436 186.065 85.1436 179.509C85.1436 177.861 85.2336 176.214 85.4175 174.571C85.5688 173.227 85.7772 171.891 86.047 170.567C87.5063 163.412 90.6662 156.597 95.224 150.905C97.4151 149.705 99.2423 147.828 100.346 145.578C100.742 144.767 104.149 144.081 104.296 143.192C104.047 143.225 100.26 139.23 100.448 138.997C100.101 138.468 99.4787 138.205 99.0992 137.689C97.2117 135.124 94.6113 135.572 93.2537 139.058C90.3537 140.525 90.3256 142.959 92.105 145.299C93.2371 146.788 93.3927 148.803 94.386 150.397C94.2838 150.528 94.1775 150.655 94.0753 150.786C94.0361 150.837 93.9969 150.887 93.9578 150.938C92.3545 153.018 89.153 152.485 88.2601 150.014C88.195 149.834 87.6423 159.598 88.0582 149.491C88.474 139.385 84.8482 144.53 83.0125 142.199C80.8199 139.415 76.3597 140.681 75.9734 144.206C75.9697 144.24 75.9661 144.274 75.9625 144.308C76.234 144.461 76.4999 144.624 76.7597 144.796C78.2402 145.778 77.728 148.079 75.9737 148.35L75.9339 148.356C76.0321 149.336 76.1996 150.307 76.4449 151.262C74.1026 160.342 79.1576 163.651 86.3769 163.801L86.7531 164.338C86.0695 166.31 85.5195 168.329 85.1068 170.374C84.7185 172.272 84.4487 174.19 84.2975 176.116L84.2912 176.198C84.1659 177.836 82.098 178.533 81.0586 177.263C80.7941 176.939 80.5234 176.656 80.2506 176.431C77.1205 173.854 72.6984 172.904 69.3217 170.832C67.6962 169.835 65.6133 171.124 65.897 173.013L65.9108 173.104C66.4136 173.309 66.9041 173.546 67.3783 173.813C67.65 173.966 67.9161 174.129 68.1761 174.302C69.6568 175.284 69.1442 177.585 67.3894 177.855L67.3496 177.861C67.321 177.865 67.2965 177.87 67.2679 177.874L67.2939 177.935C68.4229 180.598 71.1212 182.322 74.0027 182.164C77.3945 181.978 81.6075 184.821 85.3235 189.848L85.3276 189.848C86.0634 193.061 87.1384 196.2 88.5201 199.191H99.9249C99.9658 199.064 100.003 198.933 100.039 198.806C98.9847 198.871 97.9219 198.81 96.8836 198.617C97.7298 197.576 98.5759 196.527 99.4221 195.486C99.4426 195.466 99.4589 195.446 99.4753 195.425C99.9045 194.892 100.338 194.364 100.767 193.831L100.767 193.83C100.794 192.195 100.598 190.565 100.211 188.983Z" fill="#F2F2F2"/>
<path d="M369 242.239C369 242.533 368.762 242.772 368.468 242.772H0V241.706H368.468C368.762 241.706 369 241.944 369 242.239Z" fill="#E6E6E6"/>
</g>
<defs>
<clipPath id="clip0_20_112">
<rect width="369" height="243" fill="white"/>
</clipPath>
</defs>
</svg>
