<svg width="365" height="255" viewBox="0 0 365 255" fill="none" xmlns="http://www.w3.org/2000/svg">
<g clip-path="url(#clip0_285_505)">
<path d="M365 241.467H0V242.579H365V241.467Z" fill="#3F3D56"/>
<path d="M262.606 117.199C259.227 96.9532 241.614 81.5249 220.395 81.5249H133.62C112.409 81.5249 94.8002 96.9408 91.4086 117.174C91.0171 119.488 90.8152 121.868 90.8152 124.293V199.837C90.8152 202.262 91.0171 204.638 91.4086 206.952C94.1079 223.072 105.836 236.137 121.224 240.778C125.147 241.963 129.309 242.602 133.62 242.602H220.395C224.705 242.602 228.867 241.963 232.791 240.778C248.182 236.133 259.915 223.06 262.606 206.928C262.993 204.622 263.195 202.254 263.195 199.837V124.293C263.195 121.876 262.993 119.505 262.606 117.199ZM227.738 240.778C225.352 241.202 222.9 241.424 220.395 241.424H133.62C131.114 241.424 128.662 241.202 126.276 240.778C106.792 237.315 91.9979 220.301 91.9979 199.837V174.762C91.9979 103.908 149.481 82.7066 220.395 82.7066C243.381 82.7066 262.016 101.326 262.016 124.293V199.837C206.214 207.298 247.222 237.315 227.738 240.778Z" fill="#3F3D56"/>
<path d="M194.275 138.531L197.613 160.213L246.576 153.542L241.847 128.209L194.275 138.531Z" fill="#005E5D"/>
<path d="M232.702 16.8684H212.458V37.8056H232.702V16.8684Z" fill="#2F2E41"/>
<path d="M214.305 39.019L219.313 24.0088H229.073L229.586 39.019H214.305Z" fill="#FFB6B6"/>
<path opacity="0.1" d="M214.305 39.019L219.313 24.0088H229.073L229.586 39.019H214.305Z" fill="black"/>
<path d="M219.591 172.722L219.034 230.539L218.478 234.987V241.371L226.824 242.214L227.38 229.427C227.38 229.427 236.283 204.41 234.057 184.952C231.832 165.495 232.944 171.054 232.944 171.054L219.591 172.722Z" fill="#FFB6B6"/>
<path d="M224.889 177.262L204.357 231.32L203.256 235.665L200.931 241.612L192.85 239.363L196.988 227.251C196.988 227.251 197.803 200.712 206.961 183.396C216.118 166.081 213.057 170.855 213.057 170.855L224.889 177.262Z" fill="#FFB6B6"/>
<path d="M214.305 37.3513L199.282 44.0225L208.874 93.5075L207.359 164.531L197.343 185.657C197.343 185.657 195.665 197.739 212.914 189.956C230.162 182.172 249.637 179.949 249.637 179.949L244.907 147.426L240.734 62.0904L241.29 43.1886L229.05 35.4055C229.05 35.4055 214.305 37.3513 214.305 37.3513Z" fill="#2F2E41"/>
<path d="M205.938 186.429L189.267 158.545L208.318 93.5076L199.282 44.0226L215.134 37.2419C215.134 37.2419 223.341 45.2266 223.341 51.8124C223.341 58.3983 205.938 186.429 205.938 186.429Z" fill="#FFA602"/>
<path d="M242.104 180.87L226.972 50.9877C226.781 49.3477 227.061 47.6873 227.779 46.2005L232.11 37.2419L249.08 42.0768L242.258 95.1754L260.486 147.427L242.104 180.87Z" fill="#FFA602"/>
<path d="M228.493 241.101C228.493 241.101 217.922 234.986 216.809 238.322C215.696 241.657 215.14 244.437 215.14 244.437C215.14 244.437 212.358 255 220.704 255C229.05 255 228.493 250.196 228.493 250.196V241.101Z" fill="#2F2E41"/>
<path d="M191.701 237.721C191.701 237.721 203.774 235.868 203.596 239.379C203.419 242.891 202.925 245.682 202.925 245.682C202.925 245.682 201.671 256.532 193.896 253.499C186.122 250.465 188.39 246.192 188.39 246.192L191.701 237.721Z" fill="#2F2E41"/>
<path d="M224.844 32.1784C232.483 32.1784 238.676 25.9907 238.676 18.3579C238.676 10.725 232.483 4.53735 224.844 4.53735C217.205 4.53735 211.012 10.725 211.012 18.3579C211.012 25.9907 217.205 32.1784 224.844 32.1784Z" fill="#FFB6B6"/>
<path d="M235.895 6.04172C235.251 2.63419 231.75 0.329404 228.292 0.0403898C224.833 -0.248624 221.445 1.05623 218.331 2.58613C216.22 3.62322 214.141 4.79215 212.431 6.40642C210.72 8.0207 209.392 10.1295 209.085 12.4601C208.977 13.2847 208.991 14.1462 208.653 14.9063C208.231 15.8558 207.325 16.5007 206.779 17.3844C205.798 18.9694 206.249 21.2752 207.754 22.3753C205.862 23.181 203.918 24.0213 202.476 25.4862C201.033 26.951 200.201 29.2126 200.992 31.1092C201.272 31.7802 201.735 32.3676 201.974 33.0541C202.428 34.3578 201.996 35.8389 201.19 36.96C200.384 38.0812 199.246 38.9126 198.129 39.7243C201.001 40.2868 203.932 40.7251 206.847 40.4626C209.762 40.2002 212.688 39.1795 214.799 37.1538C216.91 35.1282 218.071 32.0035 217.314 29.1787C216.734 27.0149 215.111 25.1187 215.112 22.8786C215.113 21.1566 216.082 19.6032 217.018 18.1572C219.061 14.9991 221.105 11.841 223.148 8.68294C223.516 8.11487 223.904 7.52702 224.485 7.17955C225.473 6.58845 226.755 6.84839 227.796 7.33901C228.838 7.82963 229.79 8.53353 230.901 8.83773C233.168 9.45858 235.798 8.03279 236.513 5.79531" fill="#2F2E41"/>
<path d="M227.724 34.1484C226.571 35.2637 224.91 35.6229 223.371 36.0749C221.832 36.5268 220.194 37.2375 219.501 38.6835C218.822 40.1014 219.315 41.9013 220.44 43.0004C221.565 44.0996 223.199 44.5626 224.772 44.5408C226.345 44.519 227.878 44.0582 229.357 43.5234C233.403 42.0608 237.234 40.009 240.693 37.4531C238.453 36.8337 236.987 34.2197 237.628 31.9871C238.15 30.171 239.745 28.9043 240.831 27.3572C242.7 24.6935 243.012 21.1822 242.393 17.9882C241.774 14.7942 240.316 11.8334 238.874 8.91665C238.418 7.99462 237.952 7.05698 237.24 6.31351C236.529 5.57006 235.522 5.03743 234.499 5.14394C232.8 5.3207 231.715 7.18417 231.703 8.89078C231.692 10.5974 232.441 12.2013 233.009 13.8107C233.595 15.4689 234.002 17.2265 233.845 18.9777C233.713 20.4454 233.179 21.8749 232.316 23.0696C231.649 23.9922 230.8 24.7664 230.075 25.6441C229.515 26.3227 229.018 27.0913 228.87 27.9586C228.602 29.537 229.529 31.134 229.275 32.7147C229.007 34.3856 227.247 35.6649 225.573 35.4059" fill="#2F2E41"/>
<path d="M185.42 227.18C211.54 227.18 232.715 206.023 232.715 179.925C232.715 153.827 211.54 132.671 185.42 132.671C159.3 132.671 138.126 153.827 138.126 179.925C138.126 206.023 159.3 227.18 185.42 227.18Z" fill="#005E5D"/>
<path d="M213.758 176.133H207.878C206.964 170.748 204.141 165.871 199.926 162.392C190.226 154.387 175.867 155.754 167.855 165.446C167.827 165.477 167.801 165.509 167.776 165.542C167.136 166.371 167.289 167.562 168.119 168.201C168.949 168.841 170.141 168.687 170.781 167.858C174.261 163.645 179.53 160.964 185.42 160.964C194.439 160.965 202.212 167.305 204.018 176.133H198.834C198.612 176.133 198.397 176.211 198.227 176.353C197.824 176.688 197.77 177.286 198.105 177.688L205.567 186.638C205.604 186.682 205.644 186.722 205.688 186.759C206.09 187.094 206.689 187.04 207.024 186.638L214.487 177.688C214.628 177.518 214.706 177.303 214.706 177.082C214.707 176.558 214.282 176.133 213.758 176.133Z" fill="white"/>
<path d="M202.722 191.65C201.892 191.01 200.7 191.164 200.06 191.993C197.299 195.333 193.477 197.628 189.23 198.497C178.958 200.598 168.925 193.981 166.822 183.718H172.007C172.531 183.718 172.956 183.293 172.955 182.769C172.955 182.548 172.877 182.333 172.736 182.163L165.274 173.213C164.938 172.811 164.34 172.757 163.937 173.092C163.893 173.129 163.853 173.169 163.816 173.213L156.354 182.163C156.019 182.565 156.073 183.163 156.476 183.498C156.646 183.64 156.861 183.718 157.083 183.718H162.962C163.877 189.103 166.699 193.98 170.914 197.459C180.615 205.465 194.974 204.097 202.986 194.405C203.013 194.374 203.04 194.342 203.065 194.309C203.705 193.48 203.551 192.289 202.722 191.65Z" fill="white"/>
<path d="M198.625 131.864C198.053 135.959 195.474 138.983 192.865 138.619C190.257 138.254 188.607 134.639 189.181 130.543C189.388 128.903 189.984 127.337 190.921 125.975L193.567 108.654L201.675 110.068L198.206 126.993C198.733 128.56 198.877 130.23 198.625 131.864Z" fill="#FFB6B6"/>
<path d="M205.681 43.1885C205.681 43.1885 197.335 40.4089 196.222 50.4157C195.109 60.4225 193.996 72.6531 193.996 72.6531C193.996 72.6531 188.989 84.3277 191.214 90.443C193.44 96.5583 197.335 92.2947 193.44 97.4841C189.545 102.674 190.088 119.748 190.088 119.748L202.621 119.117C202.621 119.117 209.576 73.209 209.576 72.0972C209.576 70.9853 205.681 43.1885 205.681 43.1885Z" fill="#FFA602"/>
<path d="M259.93 130.006C260.085 134.138 258.077 137.567 255.445 137.665C252.813 137.763 250.555 134.494 250.4 130.36C250.315 128.71 250.628 127.063 251.311 125.558L250.875 108.042L259.106 108.013L258.662 125.284C259.456 126.734 259.891 128.353 259.93 130.006Z" fill="#FFB6B6"/>
<path d="M247.081 43.001C247.081 43.001 255.476 40.3707 256.41 50.3958C257.343 60.4209 258.237 78.7847 258.237 78.7847C258.237 78.7847 263.035 90.5469 260.701 96.6215C258.366 102.696 254.548 98.3636 258.349 103.622C262.151 108.88 260.787 123.708 260.787 123.708L248.267 122.854C248.267 122.854 242.65 79.0624 242.67 77.9507C242.69 76.8391 247.081 43.001 247.081 43.001Z" fill="#FFA602"/>
</g>
<defs>
<clipPath id="clip0_285_505">
<rect width="365" height="255" fill="white"/>
</clipPath>
</defs>
</svg>
