<svg width="325" height="281" viewBox="0 0 325 281" fill="none" xmlns="http://www.w3.org/2000/svg">
<g clip-path="url(#clip0_20_151)">
<path d="M256.642 23.2049C256.277 22.9616 255.907 22.7309 255.542 22.496C244.984 15.7492 233.667 10.2682 221.826 6.16616L219.08 44.0104H201.674V0.641783C200.579 0.415271 199.474 0.201344 198.37 0V44.0104H177.685C166.298 44.0104 155.377 39.4907 147.325 31.4457C139.273 23.4006 134.75 12.4891 134.75 1.11163C133.642 1.35073 132.542 1.60656 131.442 1.87921V44.0104H114.594L111.979 7.92373C99.8098 12.5866 88.2572 18.7186 77.5781 26.1831C77.3933 26.3089 77.2086 26.439 77.0281 26.5648C76.1003 27.215 75.1851 27.8777 74.274 28.5489V172.925H123.927L123.049 160.782L118.221 94.1073H215.449L210.621 160.782L209.743 172.925H258.846V24.6647C258.116 24.1697 257.381 23.6831 256.642 23.2049ZM131.442 83.0963H117.424L114.833 47.3158H131.442V83.0963ZM198.37 83.0963H174.826V82.3874C174.826 82.0466 174.759 81.7092 174.629 81.3944C174.498 81.0796 174.306 80.7936 174.065 80.5529C173.824 80.3121 173.537 80.1212 173.222 79.9912C172.907 79.8612 172.569 79.7945 172.228 79.7951H161.992C161.652 79.795 161.314 79.8619 160.999 79.9922C160.685 80.1224 160.398 80.3133 160.157 80.5541C159.917 80.7948 159.725 81.0807 159.595 81.3952C159.465 81.7098 159.398 82.047 159.398 82.3874V83.0963H134.75V47.3158H198.37V83.0963ZM201.674 83.0963V47.3158H218.841L216.251 83.0963H201.674Z" fill="#F2F2F2"/>
<path d="M310.566 262.397L310.894 255.024C314.315 253.197 318.131 252.232 322.01 252.213C316.671 256.574 317.338 264.981 313.719 270.845C312.576 272.666 311.037 274.206 309.218 275.352C307.398 276.497 305.344 277.219 303.207 277.464L298.739 280.197C298.126 276.782 298.261 273.275 299.135 269.918C300.009 266.561 301.602 263.432 303.802 260.749C305.052 259.256 306.484 257.926 308.066 256.79C309.136 259.609 310.566 262.397 310.566 262.397Z" fill="#F2F2F2"/>
<path d="M70.8661 254.318L60.0848 251.057C58.6709 245.317 58.6805 239.319 60.113 233.584C64.5528 243.11 77.2386 245.291 84.5497 252.844C86.812 255.218 88.5107 258.069 89.52 261.188C90.5293 264.306 90.8233 267.611 90.3803 270.859L92.7401 278.485C87.4585 278.104 82.3224 276.584 77.6855 274.029C73.0487 271.473 69.0214 267.944 65.8811 263.684C64.1431 261.277 62.7154 258.661 61.6317 255.897C66.2043 255.379 70.8661 254.318 70.8661 254.318Z" fill="#F2F2F2"/>
<path d="M302.176 278.991C302.175 279.215 302.086 279.428 301.929 279.587C301.851 279.664 301.758 279.726 301.657 279.768C301.555 279.809 301.447 279.831 301.337 279.83H297.961C297.851 279.831 297.741 279.809 297.639 279.767C297.537 279.725 297.445 279.663 297.367 279.585C297.289 279.507 297.227 279.415 297.185 279.313C297.143 279.211 297.121 279.102 297.122 278.991V177.002C297.122 174.754 296.366 172.929 295.438 172.925H42.4975C41.5654 172.929 40.814 174.754 40.8098 177.002V278.366C40.8091 278.575 40.731 278.776 40.5906 278.93C40.4502 279.084 40.2575 279.181 40.0499 279.201C39.3698 279.268 38.6896 279.327 38.0137 279.381C37.9969 279.381 37.9801 279.386 37.9633 279.386C37.5939 279.419 37.2244 279.444 36.855 279.474H36.8508C36.6577 279.126 36.473 278.769 36.284 278.413C36.2235 278.291 36.1919 278.158 36.1917 278.022V171.713C36.1917 171.092 36.2169 170.467 36.2589 169.85C36.3188 169.004 36.4239 168.161 36.5737 167.325C37.2832 163.428 38.887 160.79 40.709 160.781H297.222C297.488 160.783 297.751 160.839 297.995 160.945C298.353 161.103 298.677 161.33 298.948 161.612C299.316 161.994 299.631 162.425 299.884 162.891C300.782 164.473 301.425 166.83 301.652 169.573C301.652 169.599 301.656 169.624 301.656 169.649C301.714 170.329 301.744 171.021 301.74 171.713L301.798 180.702L301.836 186.063L301.95 202.883L301.992 208.857L302.176 278.991Z" fill="#E6E6E6"/>
<path d="M324.5 280.871L208.733 281C208.601 281 208.474 280.947 208.381 280.853C208.287 280.76 208.235 280.633 208.235 280.501C208.235 280.368 208.287 280.242 208.381 280.148C208.474 280.054 208.601 280.001 208.733 280.001L324.5 279.872C324.632 279.873 324.759 279.925 324.853 280.019C324.946 280.113 324.999 280.239 324.999 280.372C324.999 280.504 324.946 280.631 324.853 280.724C324.759 280.818 324.632 280.871 324.5 280.871Z" fill="#CACACA"/>
<path d="M180.805 130.983H160.302C160.012 130.984 159.734 131.099 159.529 131.304C159.324 131.509 159.209 131.788 159.21 132.077V164.439H181.901V132.077C181.901 131.934 181.872 131.791 181.817 131.659C181.762 131.526 181.682 131.405 181.58 131.303C181.478 131.202 181.358 131.121 181.225 131.066C181.092 131.011 180.949 130.983 180.805 130.983ZM170.623 149.371C169.981 149.368 169.367 149.112 168.914 148.659C168.461 148.206 168.204 147.592 168.202 146.952V143.219C168.202 142.577 168.457 141.962 168.911 141.509C169.365 141.055 169.981 140.8 170.623 140.8C171.265 140.8 171.881 141.055 172.335 141.509C172.789 141.962 173.044 142.577 173.044 143.219V146.952C173.041 147.592 172.785 148.206 172.331 148.659C171.878 149.112 171.264 149.368 170.623 149.371Z" fill="#2F2E41"/>
<path d="M214.757 80.4788H127.113C126.36 80.48 125.638 80.7794 125.106 81.3114C124.573 81.8434 124.273 82.5646 124.272 83.317V142.409C124.273 143.162 124.572 143.883 125.105 144.415C125.638 144.948 126.36 145.247 127.113 145.247H214.757C215.511 145.247 216.233 144.948 216.765 144.415C217.298 143.883 217.597 143.162 217.598 142.409V83.317C217.597 82.5646 217.297 81.8434 216.765 81.3114C216.232 80.7794 215.51 80.48 214.757 80.4788Z" fill="#3F3D56"/>
<path d="M214.024 82.5283H127.844C127.44 82.5291 127.054 82.6898 126.769 82.9749C126.484 83.2601 126.325 83.6464 126.324 84.0492V141.677C126.325 142.079 126.485 142.465 126.77 142.749C127.055 143.034 127.441 143.194 127.844 143.195H214.024C214.427 143.194 214.813 143.034 215.098 142.749C215.382 142.465 215.543 142.079 215.543 141.677V84.0493C215.543 83.6464 215.383 83.2601 215.099 82.9749C214.814 82.6898 214.428 82.5291 214.024 82.5283Z" fill="white"/>
<path d="M159.139 163.404V166.526C159.14 166.688 159.204 166.843 159.318 166.958C159.433 167.072 159.588 167.136 159.75 167.137H181.36C181.522 167.136 181.677 167.071 181.791 166.957C181.905 166.843 181.97 166.688 181.971 166.526V163.404H159.139Z" fill="#3F3D56"/>
<path d="M197.239 168.223H145.966C145.826 168.223 145.687 168.192 145.561 168.132C145.434 168.071 145.322 167.983 145.234 167.875C145.146 167.766 145.083 167.638 145.05 167.502C145.017 167.366 145.015 167.224 145.043 167.087L145.839 163.311C145.884 163.1 146.001 162.911 146.168 162.775C146.336 162.639 146.546 162.564 146.762 162.563H196.444C196.66 162.564 196.869 162.639 197.037 162.775C197.205 162.911 197.321 163.1 197.367 163.311L198.162 167.087C198.191 167.224 198.189 167.366 198.156 167.502C198.123 167.638 198.06 167.766 197.972 167.875C197.883 167.983 197.772 168.071 197.645 168.132C197.518 168.192 197.38 168.223 197.239 168.223Z" fill="#2F2E41"/>
<path d="M148.5 163.243H147.331C147.218 163.243 147.126 163.335 147.126 163.448V163.985C147.126 164.098 147.218 164.19 147.331 164.19H148.5C148.613 164.19 148.705 164.098 148.705 163.985V163.448C148.705 163.335 148.613 163.243 148.5 163.243Z" fill="#3F3D56"/>
<path d="M151.658 163.243H150.489C150.376 163.243 150.284 163.335 150.284 163.448V163.985C150.284 164.098 150.376 164.19 150.489 164.19H151.658C151.772 164.19 151.863 164.098 151.863 163.985V163.448C151.863 163.335 151.772 163.243 151.658 163.243Z" fill="#3F3D56"/>
<path d="M154.817 163.243H153.648C153.534 163.243 153.443 163.335 153.443 163.448V163.985C153.443 164.098 153.534 164.19 153.648 164.19H154.817C154.93 164.19 155.022 164.098 155.022 163.985V163.448C155.022 163.335 154.93 163.243 154.817 163.243Z" fill="#3F3D56"/>
<path d="M157.975 163.243H156.806C156.693 163.243 156.601 163.335 156.601 163.448V163.985C156.601 164.098 156.693 164.19 156.806 164.19H157.975C158.088 164.19 158.18 164.098 158.18 163.985V163.448C158.18 163.335 158.088 163.243 157.975 163.243Z" fill="#3F3D56"/>
<path d="M161.133 163.243H159.964C159.851 163.243 159.759 163.335 159.759 163.448V163.985C159.759 164.098 159.851 164.19 159.964 164.19H161.133C161.247 164.19 161.338 164.098 161.338 163.985V163.448C161.338 163.335 161.247 163.243 161.133 163.243Z" fill="#3F3D56"/>
<path d="M164.292 163.243H163.122C163.009 163.243 162.918 163.335 162.918 163.448V163.985C162.918 164.098 163.009 164.19 163.122 164.19H164.292C164.405 164.19 164.497 164.098 164.497 163.985V163.448C164.497 163.335 164.405 163.243 164.292 163.243Z" fill="#3F3D56"/>
<path d="M167.45 163.243H166.281C166.168 163.243 166.076 163.335 166.076 163.448V163.985C166.076 164.098 166.168 164.19 166.281 164.19H167.45C167.563 164.19 167.655 164.098 167.655 163.985V163.448C167.655 163.335 167.563 163.243 167.45 163.243Z" fill="#3F3D56"/>
<path d="M170.608 163.243H169.439C169.326 163.243 169.234 163.335 169.234 163.448V163.985C169.234 164.098 169.326 164.19 169.439 164.19H170.608C170.722 164.19 170.813 164.098 170.813 163.985V163.448C170.813 163.335 170.722 163.243 170.608 163.243Z" fill="#3F3D56"/>
<path d="M173.767 163.243H172.597C172.484 163.243 172.392 163.335 172.392 163.448V163.985C172.392 164.098 172.484 164.19 172.597 164.19H173.767C173.88 164.19 173.972 164.098 173.972 163.985V163.448C173.972 163.335 173.88 163.243 173.767 163.243Z" fill="#3F3D56"/>
<path d="M176.925 163.243H175.756C175.643 163.243 175.551 163.335 175.551 163.448V163.985C175.551 164.098 175.643 164.19 175.756 164.19H176.925C177.038 164.19 177.13 164.098 177.13 163.985V163.448C177.13 163.335 177.038 163.243 176.925 163.243Z" fill="#3F3D56"/>
<path d="M180.083 163.243H178.914C178.801 163.243 178.709 163.335 178.709 163.448V163.985C178.709 164.098 178.801 164.19 178.914 164.19H180.083C180.196 164.19 180.288 164.098 180.288 163.985V163.448C180.288 163.335 180.196 163.243 180.083 163.243Z" fill="#3F3D56"/>
<path d="M183.242 163.243H182.072C181.959 163.243 181.867 163.335 181.867 163.448V163.985C181.867 164.098 181.959 164.19 182.072 164.19H183.242C183.355 164.19 183.447 164.098 183.447 163.985V163.448C183.447 163.335 183.355 163.243 183.242 163.243Z" fill="#3F3D56"/>
<path d="M186.4 163.243H185.231C185.117 163.243 185.026 163.335 185.026 163.448V163.985C185.026 164.098 185.117 164.19 185.231 164.19H186.4C186.513 164.19 186.605 164.098 186.605 163.985V163.448C186.605 163.335 186.513 163.243 186.4 163.243Z" fill="#3F3D56"/>
<path d="M189.558 163.243H188.389C188.276 163.243 188.184 163.335 188.184 163.448V163.985C188.184 164.098 188.276 164.19 188.389 164.19H189.558C189.671 164.19 189.763 164.098 189.763 163.985V163.448C189.763 163.335 189.671 163.243 189.558 163.243Z" fill="#3F3D56"/>
<path d="M192.716 163.243H191.547C191.434 163.243 191.342 163.335 191.342 163.448V163.985C191.342 164.098 191.434 164.19 191.547 164.19H192.716C192.83 164.19 192.921 164.098 192.921 163.985V163.448C192.921 163.335 192.83 163.243 192.716 163.243Z" fill="#3F3D56"/>
<path d="M195.875 163.243H194.706C194.592 163.243 194.501 163.335 194.501 163.448V163.985C194.501 164.098 194.592 164.19 194.706 164.19H195.875C195.988 164.19 196.08 164.098 196.08 163.985V163.448C196.08 163.335 195.988 163.243 195.875 163.243Z" fill="#3F3D56"/>
<path d="M148.463 164.821H147.294C147.18 164.821 147.089 164.912 147.089 165.026V165.563C147.089 165.676 147.18 165.767 147.294 165.767H148.463C148.576 165.767 148.668 165.676 148.668 165.563V165.026C148.668 164.912 148.576 164.821 148.463 164.821Z" fill="#3F3D56"/>
<path d="M151.621 164.821H150.452C150.339 164.821 150.247 164.912 150.247 165.026V165.563C150.247 165.676 150.339 165.767 150.452 165.767H151.621C151.734 165.767 151.826 165.676 151.826 165.563V165.026C151.826 164.912 151.734 164.821 151.621 164.821Z" fill="#3F3D56"/>
<path d="M154.779 164.821H153.61C153.497 164.821 153.405 164.912 153.405 165.026V165.563C153.405 165.676 153.497 165.767 153.61 165.767H154.779C154.893 165.767 154.984 165.676 154.984 165.563V165.026C154.984 164.912 154.893 164.821 154.779 164.821Z" fill="#3F3D56"/>
<path d="M157.938 164.821H156.769C156.655 164.821 156.564 164.912 156.564 165.026V165.563C156.564 165.676 156.655 165.767 156.769 165.767H157.938C158.051 165.767 158.143 165.676 158.143 165.563V165.026C158.143 164.912 158.051 164.821 157.938 164.821Z" fill="#3F3D56"/>
<path d="M161.096 164.821H159.927C159.814 164.821 159.722 164.912 159.722 165.026V165.563C159.722 165.676 159.814 165.767 159.927 165.767H161.096C161.209 165.767 161.301 165.676 161.301 165.563V165.026C161.301 164.912 161.209 164.821 161.096 164.821Z" fill="#3F3D56"/>
<path d="M164.254 164.821H163.085C162.972 164.821 162.88 164.912 162.88 165.026V165.563C162.88 165.676 162.972 165.767 163.085 165.767H164.254C164.368 165.767 164.459 165.676 164.459 165.563V165.026C164.459 164.912 164.368 164.821 164.254 164.821Z" fill="#3F3D56"/>
<path d="M167.413 164.821H166.243C166.13 164.821 166.039 164.912 166.039 165.026V165.563C166.039 165.676 166.13 165.767 166.243 165.767H167.413C167.526 165.767 167.618 165.676 167.618 165.563V165.026C167.618 164.912 167.526 164.821 167.413 164.821Z" fill="#3F3D56"/>
<path d="M170.571 164.821H169.402C169.289 164.821 169.197 164.912 169.197 165.026V165.563C169.197 165.676 169.289 165.767 169.402 165.767H170.571C170.684 165.767 170.776 165.676 170.776 165.563V165.026C170.776 164.912 170.684 164.821 170.571 164.821Z" fill="#3F3D56"/>
<path d="M173.729 164.821H172.56C172.447 164.821 172.355 164.912 172.355 165.026V165.563C172.355 165.676 172.447 165.767 172.56 165.767H173.729C173.842 165.767 173.934 165.676 173.934 165.563V165.026C173.934 164.912 173.842 164.821 173.729 164.821Z" fill="#3F3D56"/>
<path d="M176.888 164.821H175.718C175.605 164.821 175.513 164.912 175.513 165.026V165.563C175.513 165.676 175.605 165.767 175.718 165.767H176.888C177.001 165.767 177.093 165.676 177.093 165.563V165.026C177.093 164.912 177.001 164.821 176.888 164.821Z" fill="#3F3D56"/>
<path d="M180.046 164.821H178.877C178.763 164.821 178.672 164.912 178.672 165.026V165.563C178.672 165.676 178.763 165.767 178.877 165.767H180.046C180.159 165.767 180.251 165.676 180.251 165.563V165.026C180.251 164.912 180.159 164.821 180.046 164.821Z" fill="#3F3D56"/>
<path d="M183.204 164.821H182.035C181.922 164.821 181.83 164.912 181.83 165.026V165.563C181.83 165.676 181.922 165.767 182.035 165.767H183.204C183.317 165.767 183.409 165.676 183.409 165.563V165.026C183.409 164.912 183.317 164.821 183.204 164.821Z" fill="#3F3D56"/>
<path d="M186.363 164.821H185.193C185.08 164.821 184.988 164.912 184.988 165.026V165.563C184.988 165.676 185.08 165.767 185.193 165.767H186.363C186.476 165.767 186.567 165.676 186.567 165.563V165.026C186.567 164.912 186.476 164.821 186.363 164.821Z" fill="#3F3D56"/>
<path d="M189.521 164.821H188.352C188.238 164.821 188.147 164.912 188.147 165.026V165.563C188.147 165.676 188.238 165.767 188.352 165.767H189.521C189.634 165.767 189.726 165.676 189.726 165.563V165.026C189.726 164.912 189.634 164.821 189.521 164.821Z" fill="#3F3D56"/>
<path d="M192.679 164.821H191.51C191.397 164.821 191.305 164.912 191.305 165.026V165.563C191.305 165.676 191.397 165.767 191.51 165.767H192.679C192.792 165.767 192.884 165.676 192.884 165.563V165.026C192.884 164.912 192.792 164.821 192.679 164.821Z" fill="#3F3D56"/>
<path d="M195.837 164.821H194.668C194.555 164.821 194.463 164.912 194.463 165.026V165.563C194.463 165.676 194.555 165.767 194.668 165.767H195.837C195.951 165.767 196.042 165.676 196.042 165.563V165.026C196.042 164.912 195.951 164.821 195.837 164.821Z" fill="#3F3D56"/>
<path d="M174.677 166.714H162.453C162.34 166.714 162.249 166.806 162.249 166.919V167.456C162.249 167.569 162.34 167.661 162.453 167.661H174.677C174.79 167.661 174.882 167.569 174.882 167.456V166.919C174.882 166.806 174.79 166.714 174.677 166.714Z" fill="#3F3D56"/>
<path d="M209.694 90.4686H129.055C128.971 90.4669 128.891 90.4324 128.832 90.3725C128.773 90.3126 128.741 90.2321 128.741 90.1482C128.741 90.0644 128.773 89.9839 128.832 89.924C128.891 89.8641 128.971 89.8296 129.055 89.8278H209.694C209.778 89.8296 209.857 89.8641 209.916 89.924C209.975 89.9839 210.008 90.0644 210.008 90.1482C210.008 90.2321 209.975 90.3126 209.916 90.3725C209.857 90.4324 209.778 90.4669 209.694 90.4686Z" fill="#CACACA"/>
<path d="M134.544 88.1919C135.582 88.1919 136.423 87.3325 136.423 86.2724C136.423 85.2122 135.582 84.3528 134.544 84.3528C133.506 84.3528 132.665 85.2122 132.665 86.2724C132.665 87.3325 133.506 88.1919 134.544 88.1919Z" fill="#3F3D56"/>
<path d="M141.036 88.1919C142.074 88.1919 142.915 87.3325 142.915 86.2724C142.915 85.2122 142.074 84.3528 141.036 84.3528C139.998 84.3528 139.157 85.2122 139.157 86.2724C139.157 87.3325 139.998 88.1919 141.036 88.1919Z" fill="#3F3D56"/>
<path d="M147.528 88.1919C148.566 88.1919 149.408 87.3325 149.408 86.2724C149.408 85.2122 148.566 84.3528 147.528 84.3528C146.49 84.3528 145.649 85.2122 145.649 86.2724C145.649 87.3325 146.49 88.1919 147.528 88.1919Z" fill="#3F3D56"/>
<path d="M205.785 84.8286H201.173C201.082 84.8304 200.995 84.8679 200.931 84.9332C200.867 84.9984 200.831 85.0861 200.831 85.1774C200.831 85.2688 200.867 85.3565 200.931 85.4217C200.995 85.487 201.082 85.5245 201.173 85.5263H205.785C205.876 85.5245 205.963 85.487 206.027 85.4217C206.091 85.3565 206.127 85.2688 206.127 85.1774C206.127 85.0861 206.091 84.9984 206.027 84.9332C205.963 84.8679 205.876 84.8304 205.785 84.8286Z" fill="#3F3D56"/>
<path d="M205.785 86.1382H201.173C201.082 86.14 200.995 86.1776 200.931 86.2428C200.867 86.308 200.831 86.3957 200.831 86.4871C200.831 86.5784 200.867 86.6661 200.931 86.7314C200.995 86.7966 201.082 86.8342 201.173 86.836H205.785C205.876 86.8342 205.963 86.7966 206.027 86.7314C206.091 86.6661 206.127 86.5784 206.127 86.4871C206.127 86.3957 206.091 86.308 206.027 86.2428C205.963 86.1776 205.876 86.14 205.785 86.1382Z" fill="#3F3D56"/>
<path d="M205.785 87.4461H201.173C201.082 87.4479 200.995 87.4855 200.931 87.5507C200.867 87.6159 200.831 87.7037 200.831 87.795C200.831 87.8863 200.867 87.9741 200.931 88.0393C200.995 88.1045 201.082 88.1421 201.173 88.1439H205.785C205.876 88.1421 205.963 88.1045 206.027 88.0393C206.091 87.9741 206.127 87.8863 206.127 87.795C206.127 87.7037 206.091 87.6159 206.027 87.5507C205.963 87.4855 205.876 87.4479 205.785 87.4461Z" fill="#3F3D56"/>
<path d="M175.816 109.187H165.739C164.983 109.187 164.369 109.8 164.369 110.556V110.556C164.369 111.312 164.983 111.925 165.739 111.925H175.816C176.573 111.925 177.186 111.312 177.186 110.556V110.556C177.186 109.8 176.573 109.187 175.816 109.187Z" fill="#005E5D"/>
<path d="M182.325 114.664H159.23C158.473 114.664 157.86 115.277 157.86 116.033V116.033C157.86 116.789 158.473 117.402 159.23 117.402H182.325C183.082 117.402 183.695 116.789 183.695 116.033C183.695 115.277 183.082 114.664 182.325 114.664Z" fill="#E6E6E6"/>
<path d="M182.325 120.141H159.23C158.473 120.141 157.86 120.754 157.86 121.51C157.86 122.266 158.473 122.879 159.23 122.879H182.325C183.082 122.879 183.695 122.266 183.695 121.51C183.695 120.754 183.082 120.141 182.325 120.141Z" fill="#E6E6E6"/>
<path d="M129.842 172.342H104.653C103.762 172.342 102.908 172.696 102.278 173.325C101.648 173.954 101.294 174.808 101.294 175.698C101.294 176.588 101.648 177.441 102.278 178.071C102.908 178.7 103.762 179.054 104.653 179.054H113.889V205.06H120.606V179.054H129.842C130.733 179.054 131.587 178.7 132.217 178.071C132.847 177.441 133.201 176.588 133.201 175.698C133.201 174.808 132.847 173.954 132.217 173.325C131.587 172.696 130.733 172.342 129.842 172.342Z" fill="#3F3D56"/>
<path d="M146.468 219.464H79.0929C72.5612 219.44 66.2562 217.069 61.3295 212.784C56.4028 208.499 53.1832 202.587 52.2591 196.126L49.8742 187.361C44.9379 169.198 37.419 151.837 27.5473 135.807C23.0353 128.486 20.713 121.399 25.9877 114.576C26.0327 114.518 26.0768 114.461 26.1202 114.404C30.3509 108.902 51.4082 107.711 58.2728 107.48C58.544 107.47 58.8162 107.466 59.0894 107.466H100.996C101.269 107.466 101.542 107.471 101.812 107.48C105.513 107.588 109.115 108.694 112.237 110.682C115.359 112.671 117.884 115.466 119.544 118.772C121.316 122.148 122.14 125.939 121.929 129.745C121.718 133.55 120.479 137.228 118.345 140.387C103.625 162.481 99.1178 176.334 103.732 185.306C108.195 193.983 121.877 198.42 146.789 199.268C153.483 199.496 156.556 204.704 156.577 209.447C156.598 214.067 153.644 219.168 147.109 219.45C146.897 219.459 146.683 219.464 146.468 219.464Z" fill="#4E4F9C"/>
<path d="M90.5384 279.238H115.728C116.619 279.238 117.473 278.884 118.103 278.255C118.733 277.625 119.087 276.772 119.087 275.882C119.087 274.992 118.733 274.138 118.103 273.509C117.473 272.88 116.619 272.526 115.728 272.526H106.492V215.898H99.7745V272.526H90.5384C89.6476 272.526 88.7933 272.88 88.1635 273.509C87.5336 274.138 87.1798 274.992 87.1798 275.882C87.1798 276.772 87.5336 277.625 88.1635 278.255C88.7933 278.884 89.6476 279.238 90.5384 279.238Z" fill="#3F3D56"/>
<path d="M88.5267 109.568L89.0547 112.774C89.3045 114.328 90.2091 125.31 89.5389 126.62C89.4798 124.174 84.9208 120.328 81.9669 121.206L77.331 122.235L74.4537 122.875L72.1119 123.388L65.3069 124.874C65.2951 124.795 65.2865 124.711 65.2746 124.632C65.2585 124.532 65.2424 124.433 65.2222 124.334C65.0955 123.697 64.8644 123.084 64.5382 122.522C64.5037 123.275 64.281 124.008 63.8906 124.654C63.8799 124.67 63.8707 124.688 63.8629 124.706C63.742 124.902 63.6086 125.089 63.4636 125.268C63.4568 125.272 63.4508 125.278 63.4455 125.284C63.4455 125.284 62.0473 103.015 62.1938 102.809C62.301 102.663 62.409 102.521 62.522 102.382C62.6342 102.239 62.7431 102.102 62.8602 101.962C62.8752 101.949 62.8879 101.933 62.8979 101.916C63.2259 101.528 63.5732 101.157 63.9386 100.804C64.046 100.701 64.1575 100.596 64.269 100.492C65.9714 98.9185 68.0055 97.7462 70.2214 97.0618C70.4714 96.985 70.7313 96.9148 70.9952 96.8436C71.2559 96.7775 71.5216 96.7146 71.789 96.66L71.8795 96.6415C72.007 96.6154 72.1394 96.5926 72.2678 96.5706C72.429 96.542 72.5911 96.5174 72.7499 96.4978C74.8117 96.201 76.912 96.319 78.9274 96.8447C78.9316 96.8438 78.9324 96.8479 78.9365 96.8471C80.6189 97.2864 82.218 97.9979 83.6703 98.9535C86.1823 100.611 87.1601 103.314 87.8545 106.349C88.0979 107.391 88.3028 108.475 88.5267 109.568Z" fill="#2F2E41"/>
<path d="M113.337 256.408L117.677 258.763L129.164 242.894L122.759 239.418L113.337 256.408Z" fill="#FFB6B6"/>
<path d="M115.426 250.753L123.304 253.218L122.05 256.515L127.452 264.349C127.718 264.736 127.855 265.198 127.84 265.667C127.826 266.137 127.661 266.589 127.371 266.959C127.081 267.329 126.68 267.596 126.227 267.722C125.774 267.848 125.292 267.826 124.853 267.659L115.682 264.178L115.341 260.316L113.484 263.343L110.026 262.031L115.426 250.753Z" fill="#2F2E41"/>
<path d="M137.917 185.429C137.224 185.598 136.503 185.613 135.804 185.473C135.105 185.332 134.445 185.041 133.871 184.619C133.297 184.196 132.823 183.653 132.482 183.028C132.141 182.402 131.941 181.71 131.897 180.999L94.8841 167.695L101.677 161.789L136.807 175.765C138.007 175.769 139.164 176.214 140.058 177.013C140.952 177.813 141.521 178.913 141.658 180.104C141.795 181.296 141.49 182.496 140.8 183.477C140.11 184.459 139.085 185.153 137.917 185.429Z" fill="#FFB6B6"/>
<path d="M84.5445 134.737C84.5445 134.737 78.3107 134.874 77.7565 141.985C77.2023 149.095 90.8042 166.684 92.9116 169.584C95.019 172.484 118.427 176.054 118.427 176.054L126.385 170.282C118.023 164.869 110.393 160.719 105.271 160.905L84.5445 134.737Z" fill="#FFA602"/>
<path d="M76.8991 166.112L78.4181 172.633C78.4181 172.633 78.433 178.646 79.4989 179.754C80.5572 180.858 103.83 178.642 103.83 178.642C103.83 178.642 101.362 168.953 101.395 161.621L76.8991 166.112Z" fill="#FFB6B6"/>
<path d="M126.064 249.524L117.667 244.91C117.508 233.993 124.079 219.22 131.874 203.746C114.442 206.742 97.9956 207.702 83.7707 204.078C81.4354 203.462 79.4365 201.952 78.2061 199.876C76.9756 197.799 76.6125 195.322 77.195 192.98C77.2504 192.75 77.3144 192.522 77.3871 192.297C79.0895 187.107 75.2722 183.854 78.7833 178.146C88.0179 174.995 96.7904 174.105 104.812 176.888L109.839 187.992L134.752 184.77C135.956 184.627 137.176 184.722 138.343 185.052C139.509 185.382 140.599 185.939 141.549 186.691C142.499 187.443 143.29 188.376 143.878 189.435C144.466 190.495 144.838 191.66 144.972 192.863C145.006 193.134 145.028 193.405 145.038 193.677C140 217.274 134.352 238.505 126.064 249.524Z" fill="#2F2E41"/>
<path d="M78.0528 121.049C83.6875 119.898 87.3206 114.4 86.1676 108.77C85.0147 103.14 79.5123 99.5101 73.8776 100.662C68.243 101.814 64.6099 107.312 65.7628 112.942C66.9158 118.571 72.4182 122.201 78.0528 121.049Z" fill="#FFB6B6"/>
<path d="M73.5172 124.827L83.1149 124.26C83.5196 124.236 83.9217 124.339 84.2652 124.555C84.6086 124.77 84.8763 125.087 85.0309 125.461L87.7432 132.031L99.0155 141.34C99.0155 141.34 103.479 147.014 103.489 154.343C103.499 161.671 105.072 178.634 105.072 178.634C105.072 178.634 98.5588 169.473 94.5385 171.91C93.8545 172.324 93.6139 173.172 92.8975 173.6C92.5401 173.814 91.7145 173.606 91.3536 173.82C85.8136 177.106 80.036 180.317 79.4962 179.754C78.4362 178.648 77.1505 173.001 77.1505 173.001L68.3651 140.75C67.8888 139.053 67.7942 137.272 68.0882 135.534C68.3821 133.796 69.0572 132.145 70.0651 130.698C70.6789 129.835 71.322 129.193 71.9196 129.087C73.2614 128.801 72.5477 125.796 73.5172 124.827Z" fill="#FFA602"/>
<path d="M155.16 270.069L159.212 267.255L150.034 249.955L144.055 254.108L155.16 270.069Z" fill="#FFB6B6"/>
<path d="M155.773 258.461L149.423 264.131C139.328 252.892 131.695 237.128 125.227 219.226C108.281 214.267 95.5009 206.27 84.3441 196.774C80.5592 193.574 77.7219 189.463 80.9499 185.565C81.1008 185.383 81.2584 185.207 81.4226 185.037C85.2339 181.123 94.8993 181.869 100.56 178.283L113.206 191.789L112.41 195.409L136.163 203.448C137.306 203.849 138.358 204.471 139.259 205.279C140.16 206.088 140.892 207.067 141.412 208.159C141.933 209.252 142.232 210.437 142.292 211.645C142.352 212.854 142.171 214.062 141.762 215.201C141.673 215.458 141.573 215.711 141.462 215.96L155.773 258.461Z" fill="#2F2E41"/>
<path d="M152.798 268.928L159.283 263.826L161.299 266.722L170.819 266.693C171.29 266.692 171.748 266.84 172.128 267.118C172.507 267.395 172.788 267.786 172.93 268.234C173.071 268.682 173.065 269.164 172.913 269.608C172.761 270.053 172.471 270.438 172.085 270.706L164.03 276.3L160.648 274.4L162.099 277.641L159.062 279.751L152.798 268.928Z" fill="#2F2E41"/>
<path d="M87.6898 206.106C87.0336 205.828 86.4465 205.409 85.9698 204.88C85.493 204.35 85.1383 203.723 84.9306 203.041C84.7228 202.36 84.6671 201.641 84.7673 200.936C84.8676 200.231 85.1214 199.556 85.5108 198.96L63.783 166.199L72.7615 165.517L92.5783 197.693C93.538 198.413 94.2 199.46 94.4388 200.635C94.6776 201.81 94.4767 203.032 93.8741 204.069C93.2716 205.106 92.3092 205.886 91.1694 206.262C90.0296 206.637 88.7915 206.582 87.6898 206.106Z" fill="#FFB6B6"/>
<path d="M75.1971 133.596C75.1971 133.596 70.1158 129.985 65.4199 135.357C60.7239 140.729 61.116 162.952 61.0719 166.536C61.0581 167.659 62.68 170.08 64.9146 172.877C65.9178 174.133 67.0445 175.464 68.2021 176.788C68.872 177.554 68.2948 179.148 68.9675 179.892C69.6364 180.633 71.5553 180.524 72.1916 181.211C75.2119 184.472 77.6656 186.955 77.6656 186.955L87.498 187.076C87.6089 179.773 82.6035 173.254 76.1729 166.954L75.1971 133.596Z" fill="#FFA602"/>
<path d="M88.9809 105.801C88.5956 105.992 88.2218 106.175 87.8545 106.349C86.3809 107.072 84.858 107.691 83.2972 108.201C83.0375 107.495 82.6413 106.847 82.1311 106.294C82.2617 107.058 82.1952 107.842 81.9379 108.573C79.5753 109.158 77.0954 109.062 74.785 108.297C76.2959 111.092 77.4122 116.982 77.331 122.235C77.2956 125.013 76.9193 127.612 76.0977 129.479L75.0419 126.27C74.944 125.124 74.7472 123.988 74.4538 122.875C73.7458 119.753 73.0848 121.84 72.1119 123.388L65.3069 124.873C65.2951 124.795 65.2864 124.711 65.2746 124.632C65.2585 124.532 65.2424 124.433 65.2222 124.334C65.0955 123.697 64.8644 123.084 64.5382 122.522C64.5037 123.275 64.281 124.008 63.8906 124.654C63.8799 124.67 63.8707 124.688 63.8629 124.706C63.742 124.902 63.6086 125.089 63.4636 125.268C63.4568 125.272 63.4508 125.278 63.4455 125.284C59.0521 125.871 55.9722 103.234 62.1946 102.813C62.3755 102.801 62.4099 102.525 62.522 102.382C62.6342 102.239 62.7431 102.102 62.8602 101.962C62.8752 101.949 62.8879 101.933 62.8979 101.916C63.2304 101.531 63.5746 101.161 63.9386 100.804C64.046 100.701 64.1575 100.596 64.269 100.492C65.9767 98.9261 68.0096 97.7562 70.2223 97.0659C70.4722 96.9891 70.7313 96.9147 70.9952 96.8436C71.2559 96.7775 71.5216 96.7146 71.7889 96.6599L71.8795 96.6414C72.007 96.6154 72.1394 96.5926 72.2678 96.5706C72.429 96.542 72.5911 96.5174 72.7499 96.4977C73.3462 96.798 73.8565 97.2447 74.2328 97.7959L78.5802 96.9071C78.6954 96.8835 78.8114 96.8641 78.9283 96.8487L78.9365 96.8471C84.3642 95.9386 87.854 100.299 88.9809 105.801Z" fill="#2F2E41"/>
<path d="M65.2862 101.799C64.3553 102.471 63.376 103.162 62.2401 103.329C61.1042 103.495 59.7744 102.946 59.4601 101.843C59.0757 100.494 60.2948 99.266 61.3905 98.3893L64.8649 95.6095C65.5012 95.0457 66.2195 94.5817 66.9952 94.2334C67.3848 94.0621 67.808 93.9805 68.2334 93.9947C68.6589 94.009 69.0757 94.1186 69.453 94.3155C69.8264 94.5674 70.129 94.9107 70.3321 95.3126C70.5352 95.7145 70.6318 96.1616 70.613 96.6115C70.5634 97.513 70.2656 98.3833 69.7525 99.1265C69.1075 100.131 68.2658 100.995 67.278 101.666C66.2902 102.336 65.1767 102.801 64.0046 103.03" fill="#2F2E41"/>
<path d="M91.638 174.02H66.4485C65.5578 174.02 64.7035 174.373 64.0736 175.003C63.4438 175.632 63.0899 176.486 63.0899 177.376C63.0899 178.266 63.4438 179.119 64.0736 179.748C64.7035 180.378 65.5578 180.731 66.4485 180.731H75.6847V206.738H82.4019V180.731H91.638C92.5288 180.731 93.3831 180.378 94.0129 179.748C94.6428 179.119 94.9966 178.266 94.9966 177.376C94.9966 176.486 94.6428 175.632 94.0129 175.003C93.3831 174.373 92.5288 174.02 91.638 174.02Z" fill="#3F3D56"/>
<path d="M184.698 280.452L0.499883 280.58C0.367558 280.58 0.240786 280.527 0.147353 280.434C0.0539204 280.34 0.00144958 280.213 0.00144958 280.081C0.00144958 279.949 0.0539204 279.822 0.147353 279.728C0.240786 279.635 0.367558 279.582 0.499883 279.582L184.698 279.453C184.831 279.453 184.957 279.506 185.051 279.599C185.144 279.693 185.197 279.82 185.197 279.952C185.197 280.084 185.144 280.211 185.051 280.305C184.957 280.398 184.831 280.451 184.698 280.452Z" fill="#CACACA"/>
<path d="M238.302 224.74L242.402 229.205L261.59 215.527L255.538 208.937L238.302 224.74Z" fill="#A0616A"/>
<path d="M246.789 231.059V231.055L246.373 226.596L246.184 226.508L245.08 225.983L239.87 223.521L239.761 223.404L238.715 222.263L232.926 227.573L240.768 236.113L246.146 241.969L246.327 241.801C247.064 241.127 247.661 240.314 248.083 239.408C248.505 238.503 248.744 237.524 248.787 236.526C248.83 235.528 248.676 234.532 248.333 233.594C247.99 232.656 247.465 231.794 246.789 231.059Z" fill="#2F2E41"/>
<path d="M217.057 269.281L222.86 271.042L232.421 249.516L223.856 246.916L217.057 269.281Z" fill="#A0616A"/>
<path d="M232.082 274.1C231.614 273.218 230.976 272.437 230.203 271.803C229.43 271.169 228.539 270.696 227.582 270.409L224.949 266.781L224.744 266.798L217.787 267.435L217.632 267.389L216.154 266.94L213.87 274.453L232.582 280.132L232.653 279.893C232.945 278.938 233.045 277.934 232.947 276.94C232.849 275.946 232.555 274.981 232.082 274.1Z" fill="#2F2E41"/>
<path d="M264.909 156.573C264.909 156.573 301.959 192.315 278.536 203.378H271.297C271.297 203.378 269.121 195.656 264.141 189.143C263.457 188.249 260.895 188.431 260.183 187.559C255.838 182.237 251.128 177.667 247.874 177.848L248.653 202.544L249.912 211.352C250.574 215.906 231.909 255.666 231.909 255.666L220.178 251.059C220.178 251.059 232.4 218.311 232.544 213.59L222.749 161.679L264.909 156.573Z" fill="#2F2E41"/>
<path d="M267.998 158.336C267.809 158.605 267.563 158.829 267.276 158.99C266.804 159.257 266.293 159.447 265.761 159.552C257.419 161.444 230.168 165.366 223.094 163.495C222.225 163.269 221.658 162.95 221.473 162.531C220.881 161.205 220.957 155.605 221.305 148.843C221.368 147.577 222.766 146.205 222.85 144.88C222.909 143.885 221.654 142.95 221.721 141.939C222.183 135.102 222.779 128.134 223.178 123.73C223.43 120.899 223.602 119.128 223.602 119.128L219.299 92.0183L219.5 91.687L219.727 91.5737L233.602 84.7113L234.358 82.7817C234.577 82.2261 234.957 81.7489 235.45 81.4117C235.944 81.0744 236.527 80.8927 237.124 80.8899L246.264 80.8522C246.738 80.8495 247.206 80.9601 247.629 81.1746C248.052 81.3891 248.417 81.7013 248.695 82.0854L251.172 85.5124L267.545 95.9991L267.482 96.192L259.799 119.552L259.761 121.373V121.377L259.476 136.016L260.269 138L259.375 141.255C259.375 141.255 259.787 145.06 261.991 147.887C263.989 150.454 266.533 153.13 267.683 155.303V155.307C268.322 156.507 268.536 157.547 267.998 158.336Z" fill="#E180A3"/>
<path d="M280.315 201.255L278.335 203.755C278.335 203.755 260.122 216.487 259.496 217.677L256.618 220.398L249.653 212.959L253.275 208.424C256.173 204.794 259.918 201.929 264.182 200.081L269.732 195.16L280.315 201.255Z" fill="#2F2E41"/>
<path d="M268.742 165.522L265.426 133.445L264.55 120.243L273.834 118.566C273.834 118.566 273.466 128.006 274.682 133.332C275.882 138.587 274.841 164.817 274.767 165.519C275.449 166.128 275.929 166.93 276.145 167.818C276.361 168.706 276.302 169.638 275.976 170.492C275.65 171.346 275.072 172.08 274.319 172.599C273.566 173.117 272.673 173.395 271.758 173.396C270.844 173.396 269.951 173.119 269.197 172.601C268.443 172.083 267.865 171.349 267.538 170.496C267.211 169.642 267.151 168.71 267.366 167.822C267.581 166.934 268.061 166.131 268.742 165.522Z" fill="#A0616A"/>
<path d="M277.798 140.092L265.866 142.56L264.822 138.404L263.606 137.115L261.176 124.395L257.689 116.944L258.595 91.4641L267.451 96.1568L267.462 96.1651C268.816 97.6341 269.75 99.7367 271.302 101.846C276.193 108.494 276.735 124.649 276.587 133.497C276.585 133.642 276.731 133.796 276.907 133.957C277.739 134.721 278.283 135.748 278.445 136.866C278.608 137.984 278.379 139.123 277.798 140.092Z" fill="#E180A3"/>
<path d="M214.709 166.78L218.026 134.703L218.901 121.502L209.618 119.824C209.618 119.824 209.985 129.264 208.769 134.59C207.569 139.846 208.61 166.076 208.684 166.777C208.002 167.386 207.522 168.188 207.306 169.076C207.09 169.964 207.149 170.897 207.475 171.75C207.801 172.604 208.379 173.339 209.132 173.857C209.885 174.376 210.778 174.654 211.693 174.654C212.607 174.654 213.501 174.377 214.254 173.86C215.008 173.342 215.586 172.608 215.913 171.754C216.24 170.901 216.3 169.968 216.085 169.08C215.87 168.192 215.39 167.39 214.709 166.78Z" fill="#A0616A"/>
<path d="M225.764 118.201L223.178 123.73L222.275 125.655L219.844 138.374L218.631 139.661L217.586 143.818L217.094 143.718L208.236 141.885L205.654 141.352C205.072 140.383 204.843 139.243 205.005 138.125C205.167 137.007 205.711 135.979 206.544 135.215C206.721 135.056 206.867 134.9 206.863 134.754C206.716 125.907 207.258 109.753 212.149 103.105C213.702 100.995 214.634 98.8934 215.99 97.4253C215.995 97.4211 215.995 97.4169 215.999 97.4169L219.299 92.0184L219.5 91.687L219.727 91.5737L225.764 118.201Z" fill="#E180A3"/>
<path d="M241.43 78.2524C248.146 78.2524 253.591 72.8126 253.591 66.1023C253.591 59.392 248.146 53.9522 241.43 53.9522C234.714 53.9522 229.27 59.392 229.27 66.1023C229.27 72.8126 234.714 78.2524 241.43 78.2524Z" fill="#A0616A"/>
<path d="M255.101 60.7723C255.059 58.7001 254.824 56.0491 253.372 53.935C252.146 52.1564 249.673 50.747 247.368 51.4517C247.394 50.9912 247.291 50.5326 247.072 50.1268C246.853 49.721 246.525 49.3839 246.125 49.153C245.252 48.6203 244.203 48.5238 243.275 48.4358C240.936 48.2176 238.514 47.9911 236.146 48.44C233.489 48.9433 231.314 50.3108 230.185 52.1942L230.159 52.2529L229.929 53.3687C229.898 53.5183 229.835 53.6595 229.744 53.7826C229.654 53.9057 229.538 54.0078 229.404 54.0818C229.27 54.1568 229.121 54.2014 228.968 54.2123C228.815 54.2232 228.661 54.2001 228.518 54.1447C228.361 54.086 228.192 54.0692 228.027 54.0958C227.862 54.1225 227.706 54.1918 227.576 54.2969C227.446 54.402 227.345 54.5392 227.284 54.6949C227.224 54.8507 227.205 55.0196 227.229 55.185L227.292 55.6296L226.624 55.5038C226.457 55.4714 226.284 55.4842 226.123 55.541C225.962 55.5979 225.819 55.6966 225.709 55.827C225.599 55.9574 225.526 56.1148 225.497 56.2829C225.468 56.451 225.485 56.6237 225.546 56.7832L225.73 57.2907C225.592 57.2925 225.456 57.3221 225.33 57.3776C225.204 57.4331 225.09 57.5134 224.996 57.6137C224.861 57.7599 224.776 57.9452 224.753 58.1427C224.731 58.3402 224.771 58.5398 224.87 58.7127C225.618 59.9887 226.678 61.0539 227.951 61.8084C228.524 62.1529 229.141 62.4169 229.786 62.5928C229.92 62.6305 230.059 62.6641 230.201 62.6934C235.356 63.8034 240.67 63.9626 245.882 63.1632C245.575 64.1906 245.457 65.265 245.533 66.3344C245.701 67.6725 246.486 68.7757 247.536 69.1448C247.774 69.2253 248.018 69.2842 248.266 69.321C248.504 69.3595 248.739 69.417 248.968 69.493C249.305 69.6166 249.604 69.8271 249.834 70.1032C250.064 70.3793 250.217 70.7112 250.278 71.0653C250.338 71.4195 250.304 71.7834 250.179 72.1201C250.053 72.4568 249.841 72.7545 249.564 72.983C249.564 72.983 250.664 73.8932 250.802 73.8471C251.343 73.6084 251.795 73.2065 252.095 72.6977C254.19 69.6859 255.202 65.6758 255.101 60.7723Z" fill="#2F2E41"/>
</g>
<defs>
<clipPath id="clip0_20_151">
<rect width="325" height="281" fill="white"/>
</clipPath>
</defs>
</svg>
