<svg width="627" height="627" viewBox="0 0 627 627" fill="none" xmlns="http://www.w3.org/2000/svg">
<rect width="627" height="627" fill="white"/>
<path d="M313.5 586C240.211 523.893 185.473 466.207 149.284 412.94C113.095 359.673 95 310.373 95 265.04C95 197.04 116.964 142.867 160.891 102.52C204.819 62.1733 255.689 42 313.5 42C371.311 42 422.181 62.1733 466.109 102.52C510.036 142.867 532 197.04 532 265.04C532 310.373 513.905 359.673 477.716 412.94C441.527 466.207 386.789 523.893 313.5 586Z" fill="#0C2340"/>
<path d="M271.96 324.928C270.723 324.994 269.477 325.027 268.222 325.027C266.312 325.027 264.41 324.953 262.541 324.797C262.541 324.871 262.541 324.945 262.541 325.027C262.541 342.93 247.815 357.437 229.65 357.437C211.485 357.437 196.758 342.922 196.758 325.027C196.758 313.279 203.096 302.997 212.589 297.307C204.142 286.018 199.15 272.06 199.15 256.956V256.792C198.511 256.989 197.838 257.103 197.132 257.103C193.461 257.103 190.479 254.173 190.479 250.546C190.479 246.919 193.461 243.989 197.132 243.989C198.262 243.989 199.325 244.267 200.255 244.758C206.086 212.986 234.293 188.893 268.214 188.893C280.98 188.893 292.933 192.307 303.19 198.251C304.76 190.793 308.747 184.211 314.304 179.323C310.632 178.161 307.983 174.772 307.983 170.769C307.983 165.808 312.061 161.78 317.103 161.78C322.145 161.78 326.223 165.799 326.223 170.769C326.223 171.35 326.165 171.915 326.065 172.463C329.761 171.17 333.74 170.474 337.884 170.474C354.38 170.474 368.251 181.591 372.188 196.638C378.683 192.749 386.308 190.514 394.464 190.514C418.203 190.514 437.439 209.474 437.439 232.871C437.439 256.268 418.194 275.228 394.464 275.228C372.329 275.228 354.097 258.732 351.739 237.538C347.478 239.322 342.793 240.313 337.876 240.313C336.962 240.313 336.065 240.28 335.168 240.215C336.547 245.569 337.278 251.184 337.278 256.964C337.278 272.396 332.07 286.632 323.282 298.044C331.995 303.873 337.726 313.721 337.726 324.879C337.726 342.783 323 357.29 304.835 357.29C286.67 357.29 271.977 342.808 271.944 324.928" fill="white"/>
</svg>
