<svg width="75" height="75" viewBox="0 0 159 159" fill="none" xmlns="http://www.w3.org/2000/svg">
<path d="M79.1985 157.388C122.507 157.388 157.615 122.33 157.615 79.0848C157.615 35.8392 122.507 0.781738 79.1985 0.781738C35.8904 0.781738 0.782227 35.8392 0.782227 79.0848C0.782227 122.33 35.8904 157.388 79.1985 157.388Z" fill="#005E5D"/>
<path d="M68.5007 119.838C67.1466 119.838 65.811 119.523 64.5999 118.918C63.3888 118.313 62.3354 117.435 61.5232 116.353L40.1301 87.8697C39.4428 86.9546 38.9428 85.9133 38.6586 84.8053C38.3743 83.6972 38.3114 82.5442 38.4734 81.4119C38.6355 80.2796 39.0193 79.1902 39.6029 78.206C40.1865 77.2218 40.9586 76.3621 41.875 75.6758C42.7914 74.9895 43.8342 74.4902 44.9438 74.2064C46.0534 73.9226 47.2082 73.8598 48.3421 74.0216C49.4761 74.1834 50.567 74.5666 51.5526 75.1494C52.5382 75.7322 53.3992 76.5031 54.0865 77.4182L68.0826 96.0514L104.03 42.209C105.314 40.2884 107.309 38.9555 109.577 38.5034C111.844 38.0512 114.199 38.5167 116.123 39.7976C118.047 41.0786 119.383 43.07 119.838 45.3342C120.292 47.5984 119.827 49.95 118.546 51.8722L75.7593 115.959C74.9853 117.118 73.9443 118.075 72.7236 118.749C71.5029 119.424 70.138 119.796 68.7435 119.835C68.6626 119.837 68.5816 119.838 68.5007 119.838Z" fill="#a0dab3"/>
</svg>
