<svg width="412" height="335" viewBox="0 0 412 335" fill="none" xmlns="http://www.w3.org/2000/svg">
<rect x="182.832" y="213.508" width="17" height="15" rx="4.5" transform="rotate(4.67168 182.832 213.508)" fill="white" stroke="black"/>
<rect x="332.808" y="250.418" width="17" height="15" rx="4.5" transform="rotate(37.8186 332.808 250.418)" fill="white" stroke="black"/>
<rect x="333.476" y="157.405" width="17" height="15" rx="4.5" transform="rotate(49.0194 333.476 157.405)" fill="white" stroke="black"/>
<rect x="232.75" y="138.634" width="17" height="15" rx="4.5" transform="rotate(-20.3382 232.75 138.634)" fill="white" stroke="black"/>
<rect x="-1.50341" y="1.49658" width="38.0386" height="11.3337" rx="5.66685" transform="matrix(-0.999997 -0.00227848 -0.00227848 0.999997 225.291 214.711)" fill="white" stroke="black" stroke-width="3"/>
<rect x="309.72" y="237.702" width="38.0386" height="11.3337" rx="5.66685" transform="rotate(32.33 309.72 237.702)" fill="white" stroke="black" stroke-width="3"/>
<rect x="-0.648029" y="-0.282946" width="40.0386" height="13.3337" rx="6.66685" transform="matrix(-0.365083 -0.930975 -0.930975 0.365083 262.4 175.534)" fill="white" stroke="black"/>
<rect x="0.36" y="-2.09055" width="38.0386" height="11.3337" rx="5.66685" transform="matrix(0.81685 -0.57685 -0.57685 -0.81685 304.244 193.586)" fill="white" stroke="black" stroke-width="3"/>
<rect x="245.17" y="266.869" width="17" height="18" transform="rotate(18.7219 245.17 266.869)" fill="white" stroke="black"/>
<path d="M195.505 257.193L196.2 256.681C199.434 254.298 203.93 254.512 207.101 257.113C237.283 281.864 267.691 289.386 302.312 283.401C306.056 282.753 309.811 284.416 311.651 287.642L312.041 288.325C314.833 293.22 312.167 299.327 306.772 300.372C285.405 304.512 265.932 304.538 247.552 299.707C229.176 294.877 211.802 285.169 194.666 269.71C190.896 266.308 191.316 260.28 195.505 257.193Z" fill="white" stroke="black" stroke-width="3"/>
<path d="M234.161 158.504L234.223 158.495L234.284 158.48C254.182 153.856 270.643 154.001 285.692 158.172C300.734 162.342 314.481 170.566 328.918 182.295C331.278 184.718 332.406 188.365 332.299 193.519C332.191 198.718 330.828 205.232 328.45 213.08C324.538 225.99 317.979 242.195 310.133 261.582C308.497 265.624 306.805 269.804 305.069 274.122C294.213 280.563 276.259 282 258.185 278.072C240.124 274.146 222.35 264.945 211.865 250.601C213.449 240.227 214.773 230.159 216.015 220.701C217.673 208.087 219.188 196.559 220.991 186.838C222.577 178.285 224.359 171.309 226.59 166.371C228.852 161.366 231.362 158.912 234.161 158.504Z" fill="white" stroke="black" stroke-width="3"/>
<path d="M209.795 283.907C235.025 300.854 249.52 304.688 281.184 305.28" stroke="black" stroke-width="3"/>
<rect x="1.5" y="1.5" width="409" height="168" rx="3.5" fill="white" stroke="black" stroke-width="3"/>
</svg>
