<svg width="316" height="316" viewBox="0 0 316 316" fill="none" xmlns="http://www.w3.org/2000/svg">
<path d="M68.6436 277.682L68.6431 277.681C63.5233 271.704 60.9583 264.698 60.9583 256.421C60.9583 248.303 63.3932 241.22 68.2858 234.984C73.7658 228 79.6228 221.282 85.8574 214.83C90.8215 209.864 95.4489 204.614 99.7386 199.083C103.989 193.602 108.015 187.954 111.818 182.139C118.02 172.729 124.968 163.965 132.663 155.843C139.626 148.493 147.972 144.896 158 144.896C168.03 144.896 176.444 148.496 183.525 155.868C191.309 163.971 198.296 172.824 204.489 182.433L204.498 182.447L204.507 182.461C208.306 188.272 212.276 193.864 216.417 199.236C220.603 204.666 225.179 209.864 230.142 214.83C236.377 221.282 242.234 228 247.714 234.984C252.607 241.22 255.042 248.303 255.042 256.421C255.042 264.698 252.477 271.704 247.357 277.681L247.356 277.682C242.394 283.476 236.218 286.312 228.442 286.312C216.871 286.312 205.411 285.348 194.058 283.421C182.15 281.398 170.129 280.387 158 280.387C145.871 280.387 133.85 281.398 121.942 283.421C110.589 285.348 99.1291 286.312 87.5583 286.312C79.7823 286.312 73.6059 283.476 68.6436 277.682ZM55.9122 151.354C48.8947 151.354 43.1759 148.988 38.4367 144.224C33.6906 139.452 31.3333 133.71 31.3333 126.683C31.3333 119.666 33.699 113.947 38.4638 109.207C43.2353 104.461 48.9779 102.104 56.0044 102.104C63.0219 102.104 68.7407 104.47 73.48 109.235C78.226 114.006 80.5833 119.749 80.5833 126.775C80.5833 133.793 78.2176 139.512 73.4529 144.251C68.6813 148.997 62.9387 151.354 55.9122 151.354ZM116.808 95.3958C109.791 95.3958 104.072 93.0301 99.3325 88.2654C94.5865 83.4938 92.2291 77.7512 92.2291 70.7247C92.2291 63.7072 94.5949 57.9884 99.3596 53.2492C104.131 48.5031 109.874 46.1458 116.9 46.1458C123.918 46.1458 129.637 48.5115 134.376 53.2763C139.122 58.0478 141.479 63.7904 141.479 70.8169C141.479 77.8344 139.113 83.5532 134.349 88.2925C129.577 93.0385 123.835 95.3958 116.808 95.3958ZM199.1 95.3958C192.082 95.3958 186.363 93.0301 181.624 88.2654C176.878 83.4938 174.521 77.7512 174.521 70.7247C174.521 63.7072 176.887 57.9884 181.651 53.2492C186.423 48.5031 192.165 46.1458 199.192 46.1458C206.209 46.1458 211.928 48.5115 216.667 53.2763C221.413 58.0478 223.771 63.7904 223.771 70.8169C223.771 77.8344 221.405 83.5532 216.64 88.2925C211.869 93.0385 206.126 95.3958 199.1 95.3958ZM259.996 151.354C252.978 151.354 247.259 148.988 242.52 144.224C237.774 139.452 235.417 133.71 235.417 126.683C235.417 119.666 237.782 113.947 242.547 109.207C247.319 104.461 253.061 102.104 260.088 102.104C267.105 102.104 272.824 104.47 277.563 109.235C282.309 114.006 284.667 119.749 284.667 126.775C284.667 133.793 282.301 139.512 277.536 144.251C272.765 148.997 267.022 151.354 259.996 151.354Z" fill="white" stroke="black" stroke-width="10"/>
</svg>
